<?xml version="1.0" encoding="utf-8" standalone="yes"?>
<!DOCTYPE svg PUBLIC "-//W3C//DTD SVG 1.1//EN" "http://www.w3.org/Graphics/SVG/1.1/DTD/svg11.dtd">
<svg width="648" height="360" viewBox="0 0 648 360" style="fill:none;stroke:none;fill-rule:evenodd;clip-rule:evenodd;stroke-linecap:round;stroke-linejoin:round;stroke-miterlimit:1.5;" version="1.1" xmlns="http://www.w3.org/2000/svg" xmlns:xlink="http://www.w3.org/1999/xlink"><style class="text-font-style fontImports" data-font-family="Shantell Sans">@import url(https://fonts.googleapis.com/css2?family=Shantell+Sans:wght@300..800&amp;amp;display=block);</style><rect id="" x="0" y="0" width="648" height="360" style="fill: #ffffff;"></rect><g id="items" style="isolation: isolate"><g id="blend" style="mix-blend-mode: normal"><g id="g-root-tf_1hp671pxlczv-fill" data-item-order="-349920"><g id="tf_1hp671pxlczv-fill" stroke="none" fill="#ffffff"><g><path d="M 0 0L 648 0L 648 360L 0 360Z"></path></g></g></g><g id="g-root-cr_2_cr-2_1hitfov1pxo550-fill" data-item-order="-46650" transform="translate(421.99993896484375, 110)"><g id="cr_2_cr-2_1hitfov1pxo550-fill" stroke="none" fill="#c8ffe5"><g><path d="M 17.2 25.4L 4.3 56.5L 21.5 67.3L 35.7 33ZM 21.5 67.3L 62 21.7L 44.7 11.1L 4.3 56.5ZM 44.7 11.1L 13.5 90.7L 31.1 100.5L 62 21.7ZM 31.1 100.5L 90.3 20.1L 72.5 10.5L 13.5 90.7ZM 72.5 10.5L 36.2 108.2L 54.4 116.8L 90.3 20.1ZM 54.4 116.8L 106.6 27.4L 88.7 18.5L 36.2 108.2ZM 88.7 18.5L 48.9 112.8L 66.1 123.4L 106.6 27.4ZM 66.1 123.4L 120.5 59.2L 103.2 48.7L 48.9 112.8ZM 103.2 48.7L 81.1 103.7L 99.6 111.2L 120.5 59.2Z" fill-rule="nonzero"></path></g></g></g><g id="g-root-cr_1_cr-1_1hitfov1pxo551-fill" data-item-order="-46646" transform="translate(97.99996948242188, 110)"><g id="cr_1_cr-1_1hitfov1pxo551-fill" stroke="none" fill="#dce9ff"><g><path d="M 17.1 31.3L 9.1 47.6L 25.2 60L 35 40.1ZM 25.2 60L 69.6 21.3L 53.7 8.7L 9.1 47.6ZM 53.7 8.7L 11.6 87.6L 28.5 98.4L 69.6 21.3ZM 28.5 98.4L 89.9 16.8L 72.1 7.1L 11.6 87.6ZM 72.1 7.1L 35.2 107.9L 53.2 117L 89.9 16.8ZM 53.2 117L 110.9 29.3L 93.4 19.6L 35.2 107.9ZM 93.4 19.6L 51.8 109.3L 68.7 120.5L 110.9 29.3ZM 68.7 120.5L 122.2 61.2L 104.9 50.4L 51.8 109.3ZM 104.9 50.4L 82.9 104.9L 101.4 112.4L 122.2 61.2Z" fill-rule="nonzero"></path></g></g></g><g id="g-root-tx_whichapp_1q6yu271pxea6j-fill" data-item-order="0" transform="translate(14, 38)"><g id="tx_whichapp_1q6yu271pxea6j-fill" stroke="none" fill="#484848"><g><text style="font: bold 25px &quot;Shantell Sans&quot;, cursive; white-space: pre;" font-weight="bold" font-size="25px" font-family="'Shantell Sans', cursive"><tspan x="15.3" y="45" dominant-baseline="ideographic">Which approach to trading is more effective?</tspan></text></g></g></g><g id="g-root-ic_reco_mgpdwv1pxo5xe-fill" data-item-order="0" transform="translate(116, 128)"></g><g id="g-root-ic_ligh_me7hkf1pxy0p6-fill" data-item-order="0" transform="translate(278, 128)"></g><g id="g-root-ic_1_dkfwkv1pxwmbu-fill" data-item-order="0" transform="translate(440, 128)"></g><g id="g-root-tx_tradingb_qwiw1b1pxo555-fill" data-item-order="0" transform="translate(80, 230)"><g id="tx_tradingb_qwiw1b1pxo555-fill" stroke="none" fill="#484848"><g><text style="font: bold 20px &quot;Shantell Sans&quot;, cursive; white-space: pre;" font-weight="bold" font-size="20px" font-family="'Shantell Sans', cursive"><tspan x="15.68" y="35" dominant-baseline="ideographic">Trading Bots</tspan></text></g></g></g><g id="g-root-tx_humantra_147cxbj1pxo6pz-fill" data-item-order="0" transform="translate(392, 230)"><g id="tx_humantra_147cxbj1pxo6pz-fill" stroke="none" fill="#484848"><g><text style="font: bold 20px &quot;Shantell Sans&quot;, cursive; white-space: pre;" font-weight="bold" font-size="20px" font-family="'Shantell Sans', cursive"><tspan x="14.32" y="35" dominant-baseline="ideographic">Human Traders</tspan></text></g></g></g><g id="g-root-tx_reacttod_zs5wa71pxo4cg-fill" data-item-order="0" transform="translate(50, 266)"><g id="tx_reacttod_zs5wa71pxo4cg-fill" stroke="none" fill="#484848"><g><text style="font: 15px &quot;Shantell Sans&quot;, cursive; white-space: pre;" font-size="15px" font-family="'Shantell Sans', cursive"><tspan x="12.66" y="29" dominant-baseline="ideographic">React to data, lack critical </tspan><tspan x="79.85" y="47" dominant-baseline="ideographic">thinking</tspan></text></g></g></g><g id="g-root-tx_applycri_18n6ffz1pxo5xq-fill" data-item-order="0" transform="translate(356, 266)"><g id="tx_applycri_18n6ffz1pxo5xq-fill" stroke="none" fill="#484848"><g><text style="font: 15px &quot;Shantell Sans&quot;, cursive; white-space: pre;" font-size="15px" font-family="'Shantell Sans', cursive"><tspan x="14.27" y="29" dominant-baseline="ideographic">Apply critical thinking, manage </tspan><tspan x="94.44" y="47" dominant-baseline="ideographic">emotions</tspan></text></g></g></g><g id="g-root-tf_1hp671pxlczv-stroke" data-item-order="-349920"></g><g id="g-root-cr_2_cr-2_1hitfov1pxo550-stroke" data-item-order="-46650" transform="translate(421.99993896484375, 110)"><g id="cr_2_cr-2_1hitfov1pxo550-stroke" fill="none" stroke-linecap="round" stroke-linejoin="round" stroke-miterlimit="4" stroke="#484848" stroke-width="4"><g><path d="M 10 64C 11.4 93.8 34.2 119 64 118C 79.8 117.5 94.4 111.7 103.8 100.5C 112.2 90.5 119 78 118 64C 116.9 48 111.7 32.6 99.8 23.6C 89.7 15.9 77.8 9.9 64 10C 50 10.1 37.2 15.2 27.7 24C 17 34 11.8 48.2 10 64"></path><path d="M 10 64C 10 93.823377 34.176624 118 64 118C 93.823377 118 118 93.823377 118 64C 118 34.176624 93.823377 10 64 10C 34.176624 10 10 34.176624 10 64"></path></g></g></g><g id="g-root-cr_1_cr-1_1hitfov1pxo551-stroke" data-item-order="-46646" transform="translate(97.99996948242188, 110)"><g id="cr_1_cr-1_1hitfov1pxo551-stroke" fill="none" stroke-linecap="round" stroke-linejoin="round" stroke-miterlimit="4" stroke="#484848" stroke-width="4"><g><path d="M 10 64C 9.1 93.8 34.2 116.6 64 118C 93.8 119.4 117.8 93.8 118 64C 118.2 34.2 93.8 10.2 64 10C 34.2 9.8 11.2 34.2 10 64"></path><path d="M 10 64C 10 93.823377 34.176624 118 64 118C 93.823377 118 118 93.823377 118 64C 118 34.176624 93.823377 10 64 10C 34.176624 10 10 34.176624 10 64"></path></g></g></g><g id="g-root-tx_whichapp_1q6yu271pxea6j-stroke" data-item-order="0" transform="translate(14, 38)"></g><g id="g-root-ic_reco_mgpdwv1pxo5xe-stroke" data-item-order="0" transform="translate(116, 128)"><g id="ic_reco_mgpdwv1pxo5xe-stroke" fill="none" stroke-linecap="round" stroke-linejoin="round" stroke-miterlimit="4" stroke="#484848" stroke-width="2"><g><path d="M 46.900002 77.199997C 47.199997 79 45.400002 80.199997 43.599998 80.5C 34.300003 82.899994 24.099998 82.600006 14.8 80.5C 13 80.199997 11.2 79 11.5 77.199997C 12.1 74.800003 12.1 71.800003 11.5 69.399994C 9.4 59.800003 19.6 53.800003 29.200001 51.699997C 38.800003 49.300003 44.800003 59.800003 46.900002 69.399994C 47.5 71.800003 46.900002 74.5 46.900002 77.199997M 22.299999 62.5C 22.599998 62.800003 22.900002 63.399998 23.200001 63.399998C 23.5 63.100002 23.799999 62.800003 23.799999 62.5C 23.799999 62.199997 23.5 61.899998 23.200001 61.899998C 22.900002 61.600002 22.299999 62.199997 22.299999 62.5M 34.300003 62.5C 34.300003 62.800003 34.900002 63.100002 35.199997 63.100002C 35.5 63.399998 35.800003 62.800003 35.800003 62.5C 36.099998 62.199997 35.5 61.899998 35.199997 61.600002C 34.900002 61.600002 34.300003 62.199997 34.300003 62.5M 29.200001 51.699997C 29.5 49.300003 28.599998 47.199997 29.200001 45.099998M 24.400002 40.300003C 24.099998 43 26.5 44.800003 29.200001 45.099998C 31.900002 45.400002 34.300003 43 34 40.300003C 33.700001 37.599998 31.900002 36.099998 29.200001 35.5C 26.5 34.900002 25 37.599998 24.400002 40.300003M 11.5 72.399994C 23.200001 71.199997 35.199997 72.399994 46.900002 72.399994M 35.5 26.5C 35.800003 27.700001 35.199997 28.900002 35.5 30.400002M 43 23.5C 42.400002 29.5 42.099998 35.5 43 41.5M 50.5 20.5C 48.699997 28.299999 48.699997 36.699997 50.5 44.5M 80.5 26.5C 82 30.099998 80.199997 34.599998 80.5 38.5M 73 23.5C 72.100006 29.5 73.899994 35.5 73 41.5M 65.5 20.5C 64.300003 28.299999 65.800003 36.400002 65.5 44.5M 58 11.5C 57.699997 25.599998 56.800003 39.699997 58 53.5"></path><path d="M 46.858002 77.287003C 46.856346 79.061974 45.416977 80.5 43.642002 80.5L 14.713 80.5C 12.939195 80.498344 11.501654 79.060806 11.5 77.287003L 11.5 69.25C 11.5 59.48616 19.415159 51.570999 29.179001 51.570999C 38.942844 51.570999 46.858002 59.48616 46.858002 69.25ZM 22.429001 62.5C 22.429001 62.914215 22.764786 63.25 23.179001 63.25C 23.593214 63.25 23.929001 62.914215 23.929001 62.5C 23.929001 62.085785 23.593214 61.75 23.179001 61.75C 22.764786 61.75 22.429001 62.085785 22.429001 62.5M 34.429001 62.481998C 34.429001 62.89621 34.764786 63.231998 35.179001 63.231998C 35.593216 63.231998 35.929001 62.89621 35.929001 62.481998C 35.929001 62.067787 35.593216 61.731998 35.179001 61.731998C 34.764786 61.731998 34.429001 62.067787 34.429001 62.481998M 29.179001 51.570999L 29.179001 45.141998M 24.358 40.320999C 24.358002 42.983566 26.516436 45.142002 29.179001 45.142002C 31.841566 45.142002 34 42.983566 34 40.320999C 34 37.658436 31.841566 35.5 29.179001 35.5C 26.516436 35.5 24.358002 37.658436 24.358002 40.320999M 11.5 72.445L 46.858002 72.445M 35.5 26.5L 35.5 30.25M 43 23.5L 43 41.5M 50.5 20.5L 50.5 44.5M 80.5 26.5L 80.5 38.5M 73 23.5L 73 41.5M 65.5 20.5L 65.5 44.5M 58 11.5L 58 53.5"></path></g></g></g><g id="g-root-ic_ligh_me7hkf1pxy0p6-stroke" data-item-order="0" transform="translate(278, 128)"><g id="ic_ligh_me7hkf1pxy0p6-stroke" fill="none" stroke-linecap="round" stroke-linejoin="round" stroke-miterlimit="4" stroke="#484848" stroke-width="2"><g><path d="M 43.75 60.25C 41.199997 64.75 43 70.449997 41.800003 75.399994C 41.5 76.899994 43.75 77.949997 44.349998 76.600006C 46.300003 72.850006 51.550003 69.25 54.849998 63.850002M 69.850006 45.550003C 71.5 43.75 73 42.25 73.75 40.75C 74.199997 39.699997 73.75 38.650002 72.550003 38.349998C 71.5 38.199997 70.300003 38.5 69.100006 38.349998M 25.150002 52.900002C 23.200001 52.900002 21.4 52.900002 19.450001 52.900002C 18.25 52.900002 17.35 51.25 18.4 50.5C 20.049999 48.849998 21.85 47.349998 22.75 45.099998M 35.050003 30.400002C 38.650002 23.799999 43.449997 17.799999 47.5 15.4C 48.849998 14.65 50.800003 15.25 50.199997 16.6C 48.699997 20.5 50.5 25.150002 48.550003 28.900002M 40.900002 54.849998C 43.300003 48.400002 45.400002 41.949997 46.75 35.349998C 46.900002 34.300003 46.150002 33.099998 45.25 33.400002C 44.349998 33.700001 43.300003 33.700001 42.400002 33.400002C 41.800003 33.25 41.050003 33.849998 41.050003 34.449997C 40.75 40 37.599998 44.949997 36.400002 50.349998C 36.25 50.800003 35.650002 50.800003 35.650002 50.349998C 35.349998 44.949997 31.299999 40 31.450001 34.449997C 31.450001 33.849998 30.549999 33.099998 29.950001 33.400002C 29.049999 33.700001 28 33.25 26.950001 33.400002C 26.049999 33.400002 25.150002 34.449997 25.599998 35.349998C 28.450001 41.349998 29.200001 48.25 31.150002 54.699997C 31.75 56.650002 33.549999 58.449997 35.5 58C 35.800003 58 36.25 57.849998 36.550003 58C 38.5 58.75 39.699997 56.349998 40.900002 54.849998M 56.050003 52.900002C 54.699997 52.599998 53.349998 52.599998 52.150002 52.300003C 51.25 52.150002 49.900002 52.449997 49.900002 53.5C 49.900002 54.25 49.75 55 49.449997 55.599998C 49.300003 56.199997 49.75 56.800003 50.349998 57.099998C 51.400002 58 53.650002 57.699997 55.75 58C 62.050003 59.199997 65.199997 54.699997 65.5 50.349998C 65.649994 47.349998 63.550003 45.400002 59.800003 43.300003C 56.800003 42.099998 55.900002 41.5 55.75 40.300003C 55.599998 39.25 56.800003 38.650002 58.75 38.5C 59.800003 38.349998 60.850002 38.5 61.600002 38.800003C 62.5 39.25 63.25 38.5 63.699997 37.75C 64.149994 37.150002 64 36.400002 64.300003 35.650002C 64.449997 35.050003 64 34.300003 63.399998 34C 62.199997 33.700001 60.699997 33.400002 58.75 33.400002C 52.75 33.400002 48.25 36.849998 49.449997 40.900002C 50.349998 43.75 51.550003 46.150002 55.599998 47.949997C 58.149998 48.849998 59.199997 49.599998 59.199997 50.800003C 59.199997 52.150002 58.149998 52.900002 56.050003 52.900002"></path><path d="M 43.7155 60.25L 41.78965 75.448456C 41.6017 76.932404 43.444153 77.732651 44.395 76.57795C 47.01955 73.3909 50.811699 68.769402 54.856899 63.833954M 69.831848 45.546398C 71.379852 43.654751 72.706451 42.033249 73.705299 40.812103C 74.506447 39.832748 73.809097 38.36335 72.543854 38.36335L 69.158348 38.36335M 25.079649 52.911999L 19.49548 52.911999C 18.223511 52.911999 17.52829 51.428951 18.342926 50.452148L 22.779266 45.132549M 35.112999 30.346449C 39.87685 24.636566 44.504349 19.091724 47.564949 15.428576C 48.525852 14.278646 50.384201 15.095304 50.190849 16.581249L 48.589302 28.888599M 40.897453 54.801849L 46.692249 35.308601C 46.978149 34.346951 46.257702 33.3811 45.254501 33.3811L 42.439301 33.3811C 41.771049 33.3811 41.18335 33.823151 40.9981 34.465149L 36.3946 50.412849C 36.289299 50.77795 35.77 50.772701 35.67205 50.405647L 31.4233 34.494099C 31.2481 33.8377 30.6535 33.3811 29.97415 33.3811L 26.994999 33.3811C 25.99645 33.3811 25.276749 34.338249 25.553949 35.297501L 31.17985 54.7687C 31.7362 56.694099 33.498852 58.019501 35.503002 58.019501L 36.584049 58.019501C 38.575451 58.019501 40.329998 56.710602 40.897453 54.801849ZM 55.995251 52.8979C 54.671501 52.8979 53.315948 52.649349 52.157799 52.296249C 51.212952 52.008099 50.137451 52.530552 49.935249 53.497299L 49.494553 55.60405C 49.356548 56.263451 49.675148 56.93755 50.312199 57.156551C 51.677353 57.6259 53.664398 58.020248 55.7164 58.020248C 62.197296 58.020248 65.500153 54.6562 65.500153 50.398453C 65.500153 47.324951 63.797348 44.9491 59.738503 43.285149C 56.776901 42.0355 55.727348 41.490551 55.727348 40.328049C 55.727348 39.259899 56.758598 38.467899 58.703651 38.467899C 59.83075 38.467899 60.802898 38.636799 61.608551 38.862099C 62.52655 39.118752 63.545498 38.638149 63.765404 37.710701L 64.243744 35.694248C 64.408752 34.998253 64.061646 34.273598 63.381096 34.053402C 62.162048 33.658901 60.618248 33.381851 58.743996 33.381851C 52.776852 33.381851 49.470402 36.687851 49.470402 40.843899C 49.470402 43.873749 51.5695 46.227848 55.602547 47.924351C 58.15675 48.945248 59.221001 49.66465 59.221001 50.874397C 59.221001 52.084152 58.112801 52.8979 55.995251 52.8979Z"></path></g></g></g><g id="g-root-ic_1_dkfwkv1pxwmbu-stroke" data-item-order="0" transform="translate(440, 128)"><g id="ic_1_dkfwkv1pxwmbu-stroke" fill="none" stroke-linecap="round" stroke-linejoin="round" stroke-miterlimit="4" stroke="#484848" stroke-width="2"><g><path d="M 21.4 35.800003C 25.599998 39.699997 31 41.5 36.699997 42.400002C 39.699997 42.699997 42.400002 41.5 45.099998 40.599998M 19.9 42.400002C 22 49 25.599998 53.5 32.5 55C 39.400002 56.5 47.5 49 45.400002 42.400002C 43 35.5 39.099998 32.200001 32.5 29.5C 25.900002 26.799999 20.5 35.199997 19.9 42.400002M 11.5 80.5C 10.6 68.800003 20.799999 59.5 32.5 59.5C 44.199997 59.5 53.199997 68.800003 53.5 80.5C 39.699997 77.800003 25.299999 78.699997 11.5 80.5M 56.5 46C 57.099998 46 57.400002 46 58 46C 61 45.400002 63.399998 43.599998 65.5 41.5C 86.5 42.099998 84.699997 9.7 65.199997 11.5C 61.600002 10.3 56.5 12.4 55 16C 51.699997 13.9 47.800003 15.1 43.900002 15.7C 40 16 38.199997 20.5 36.099998 23.799999M 58 55C 58 56.800003 59.5 57.699997 61 58C 62.5 58.300003 64.600006 56.5 64 55C 63.399998 53.5 62.5 51.699997 61 52C 59.5 52.300003 57.699997 53.5 58 55M 59.5 27.400002C 59.800003 27.099998 60.100002 27.700001 60.399998 28C 60.399998 28.299999 59.800003 28.599998 59.5 28.900002C 59.199997 28.900002 58.600002 28.299999 58.899998 28C 58.899998 27.700001 59.199997 27.099998 59.5 27.400002M 59.5 27.400002M 68.5 27.400002C 68.800003 27.099998 69.399994 27.700001 69.399994 28C 69.100006 28.299999 68.800003 28.900002 68.5 28.900002C 68.199997 28.599998 67.600006 28.299999 67.899994 28C 67.899994 27.700001 68.199997 27.099998 68.5 27.400002M 68.5 27.400002M 50.5 27.400002C 50.800003 27.400002 51.099998 27.700001 51.400002 28C 51.400002 28.299999 50.800003 28.599998 50.5 28.900002C 50.199997 28.900002 49.900002 28.299999 49.900002 28C 49.599998 27.700001 50.199997 27.400002 50.5 27.400002M 50.5 27.400002M 50.5 58.899998C 50.800003 58.899998 51.099998 59.199997 51.400002 59.5C 51.400002 59.800003 50.800003 60.100002 50.5 60.399998C 50.199997 60.399998 49.599998 59.800003 49.900002 59.5C 49.900002 59.199997 50.199997 58.600002 50.5 58.899998M 50.5 58.899998"></path><path d="M 21.52 35.77C 25.497894 39.926399 31.006836 42.268784 36.760002 42.250004C 39.635937 42.242111 42.481426 41.660774 45.130001 40.540001M 19.75 42.25C 19.75 49.29163 25.45837 55 32.5 55C 39.54163 55 45.25 49.29163 45.25 42.25C 45.25 35.20837 39.54163 29.5 32.5 29.5C 25.45837 29.5 19.75 35.20837 19.75 42.25M 11.5 80.5C 11.500001 68.902023 20.902021 59.500008 32.5 59.500008C 44.09798 59.500008 53.5 68.902023 53.5 80.500008ZM 56.5 46C 56.998924 46.046394 57.501076 46.046394 58 46C 61.079323 45.796989 63.87178 44.121513 65.5 41.5C 86.5 41.5 84.639999 11.5 65.199997 11.5C 61.30724 11.444628 57.583405 13.087496 55 16C 51.490028 14.274323 47.405869 14.148282 43.796165 15.654242C 40.186462 17.1602 37.402832 20.151464 36.16 23.860001M 58 55C 58 56.656857 59.343147 58 61 58C 62.656853 58 64 56.656857 64 55C 64 53.343143 62.656853 52 61 52C 59.343147 52 58 53.343143 58 55M 59.5 27.25C 59.914215 27.25 60.25 27.585787 60.25 28L 60.25 28C 60.25 28.414213 59.914215 28.75 59.5 28.75L 59.5 28.75C 59.085785 28.75 58.75 28.414213 58.75 28L 58.75 28C 58.75 27.585787 59.085785 27.25 59.5 27.25M 59.5 27.25L 59.5 27.25M 68.5 27.25C 68.914215 27.25 69.25 27.585787 69.25 28L 69.25 28C 69.25 28.414213 68.914215 28.75 68.5 28.75L 68.5 28.75C 68.085785 28.75 67.75 28.414213 67.75 28L 67.75 28C 67.75 27.585787 68.085785 27.25 68.5 27.25M 68.5 27.25L 68.5 27.25M 50.5 27.25C 50.914215 27.25 51.25 27.585787 51.25 28L 51.25 28C 51.25 28.414213 50.914215 28.75 50.5 28.75L 50.5 28.75C 50.085785 28.75 49.75 28.414213 49.75 28L 49.75 28C 49.75 27.585787 50.085785 27.25 50.5 27.25M 50.5 27.25L 50.5 27.25M 50.5 58.75C 50.914215 58.75 51.25 59.085785 51.25 59.5L 51.25 59.5C 51.25 59.914215 50.914215 60.25 50.5 60.25L 50.5 60.25C 50.085785 60.25 49.75 59.914215 49.75 59.5L 49.75 59.5C 49.75 59.085785 50.085785 58.75 50.5 58.75M 50.5 58.75L 50.5 58.75"></path></g></g></g><g id="g-root-tx_tradingb_qwiw1b1pxo555-stroke" data-item-order="0" transform="translate(80, 230)"></g><g id="g-root-tx_humantra_147cxbj1pxo6pz-stroke" data-item-order="0" transform="translate(392, 230)"></g><g id="g-root-tx_reacttod_zs5wa71pxo4cg-stroke" data-item-order="0" transform="translate(50, 266)"></g><g id="g-root-tx_applycri_18n6ffz1pxo5xq-stroke" data-item-order="0" transform="translate(356, 266)"></g></g></g></svg>