<?xml version="1.0" encoding="utf-8" standalone="yes"?>
<!DOCTYPE svg PUBLIC "-//W3C//DTD SVG 1.1//EN" "http://www.w3.org/Graphics/SVG/1.1/DTD/svg11.dtd">
<svg width="792" height="552" viewBox="0 0 792 552" style="fill:none;stroke:none;fill-rule:evenodd;clip-rule:evenodd;stroke-linecap:round;stroke-linejoin:round;stroke-miterlimit:1.5;" version="1.1" xmlns="http://www.w3.org/2000/svg" xmlns:xlink="http://www.w3.org/1999/xlink"><style class="text-font-style fontImports" data-font-family="Shantell Sans">@import url(https://fonts.googleapis.com/css2?family=Shantell+Sans:wght@300..800&amp;amp;display=block);</style><rect id="" x="0" y="0" width="792" height="552" style="fill: #ffffff;"></rect><g id="items" style="isolation: isolate"><g id="blend" style="mix-blend-mode: normal"><g id="g-root-tf_1q5qi0v1o9qmf6-fill" data-item-order="-655776"><g id="tf_1q5qi0v1o9qmf6-fill" stroke="none" fill="#ffffff"><g><path d="M 0 0L 792 0L 792 552L 0 552Z"></path></g></g></g><g id="g-root-cp_4_g-4_1414vr31o9uubl-fill" data-item-order="-339254" transform="translate(219.26199340820312, 110)"><g id="cp_4_g-4_1414vr31o9uubl-fill" stroke="none" fill="#fff8b6"><g><path d="M 177.3 116.5L 169.7 110.7L 152.1 122.4L 165.1 132.4ZM 152.1 122.4L 161.4 158.5L 179.1 147L 169.7 110.7ZM 179.1 147L 128.2 106.6L 112.7 119.8L 161.4 158.5ZM 112.7 119.8L 156.8 198.7L 173.1 186.8L 128.2 106.6ZM 173.1 186.8L 113.2 122.8L 97.1 134.9L 156.8 198.7ZM 97.1 134.9L 134 196.3L 149.9 184L 113.2 122.8ZM 149.9 184L 105.3 138.5L 84.2 145.5L 134 196.3ZM 84.2 145.5L 79.9 178.5L 100.8 173L 105.3 138.5ZM 100.8 173L 87.6 155.4L 71.6 167.4L 79.9 178.5ZM 119.1 189.7L 94.8 165.5L 80.7 179.6L 104.9 203.8Z" fill-rule="nonzero"></path></g></g><g id="cp_4_g-4_1414vr31o9uubl-fill" stroke="none" fill="#fff8b6"><g><path d="M 1.2 156.7L 2.4 159.5L 24.4 159.8L 19.5 148.6ZM 24.4 159.8L 36 135.2L 18.3 125.7L 2.4 159.5ZM 18.3 125.7L 17.1 127.7L 34.2 138.1L 36 135.2ZM 34.2 138.1L 55.4 103.8L 33.1 102L 17.1 127.7ZM 33.1 102L 54.9 155.4L 74.3 150.1L 55.4 103.8ZM 74.3 150.1L 64 79.7L 44.6 85.4L 54.9 155.4ZM 44.6 85.4L 68.1 137.4L 87.7 132.1L 64 79.7ZM 87.7 132.1L 80.1 60.9L 60.7 66.9L 68.1 137.4ZM 60.7 66.9L 84.5 110.9L 104.4 105.5L 80.1 60.9ZM 104.4 105.5L 102.6 52.8L 82.7 56.7L 84.5 110.9ZM 82.7 56.7L 99.6 102.7L 119.6 99.3L 102.6 52.8ZM 119.6 99.3L 120.1 47.7L 100 51.4L 99.6 102.7ZM 100 51.4L 116 92L 136.4 89.2L 120.1 47.7ZM 136.4 89.2L 141.5 39.2L 121 43L 116 92ZM 121 43L 144.6 89.4L 164.2 83.8L 141.5 39.2ZM 164.2 83.8L 159.9 31.8L 140.3 37.4L 144.6 89.4ZM 140.3 37.4L 163.4 82.6L 183.7 78.3L 159.9 31.8ZM 183.7 78.3L 187.2 23.4L 166.9 27.4L 163.4 82.6ZM 166.9 27.4L 194.4 83.9L 214.8 80.3L 187.2 23.4ZM 214.8 80.3L 218.5 42.2L 198.1 45.1L 194.4 83.9ZM 198.1 45.1L 208.2 70.5L 226.8 63.1L 218.5 42.2ZM 167.1 81.9L 168.5 98.8L 188.4 97.2L 187 80.3Z" fill-rule="nonzero"></path></g></g></g><g id="g-root-cp_3_g-3_v64clb1o9uryk-fill" data-item-order="-339248" transform="translate(194, 236)"><g id="cp_3_g-3_v64clb1o9uryk-fill" stroke="none" fill="#e9ffb9"><g><path d="M 115.3 67L 110.8 76.6L 125.4 92.5L 133.4 75.5ZM 125.4 92.5L 160.4 79.5L 149.8 62.1L 110.8 76.6ZM 149.8 62.1L 100.3 107.2L 112 123.7L 160.4 79.5ZM 112 123.7L 197.4 78L 185.3 61.8L 100.3 107.2ZM 185.3 61.8L 118.7 129L 131.2 144.8L 197.4 78ZM 131.2 144.8L 196.6 105.1L 183.9 89.4L 118.7 129ZM 183.9 89.4L 132.3 144.2L 143.8 161.2L 196.6 105.1ZM 143.8 161.2L 196.8 140.1L 186.1 122.8L 132.3 144.2ZM 186.1 122.8L 150.5 154.7L 163.9 169.6L 196.8 140.1Z" fill-rule="nonzero"></path></g></g><g id="cp_3_g-3_v64clb1o9uryk-fill" stroke="none" fill="#e9ffb9"><g><path d="M 52.3 6.6L 53.7 5.5L 54.8 30L 64.6 22.4ZM 54.8 30L 74.3 42.6L 75.9 19.8L 53.7 5.5ZM 75.9 19.8L 18.5 46.1L 23.1 66L 74.3 42.6ZM 23.1 66L 92.1 64.3L 87 44.4L 18.5 46.1ZM 87 44.4L 28.9 74.6L 34.7 94.1L 92.1 64.3ZM 34.7 94.1L 83.4 89.3L 78.3 69.7L 28.9 74.6ZM 78.3 69.7L 37.4 87.4L 40.9 107.8L 83.4 89.3ZM 40.9 107.8L 88.1 111.3L 84.1 90.9L 37.4 87.4ZM 84.1 90.9L 35.8 115.2L 40.8 135L 88.1 111.3ZM 40.8 135L 98.3 133.2L 94.1 113.3L 35.8 115.2ZM 94.1 113.3L 53.1 129.8L 56.5 150L 98.3 133.2ZM 56.5 150L 108 152.7L 104.2 132.5L 53.1 129.8ZM 104.2 132.5L 60.8 151.9L 65.6 171.7L 108 152.7ZM 65.6 171.7L 125.8 167.9L 120.6 148.2L 60.8 151.9ZM 120.6 148.2L 68.9 173.5L 74.6 192.9L 125.8 167.9ZM 74.6 192.9L 151.4 184.3L 145.8 164.8L 68.9 173.5ZM 145.8 164.8L 92.9 189.9L 97.8 209.7L 151.4 184.3ZM 97.8 209.7L 144.3 207.5L 139 187.7L 92.9 189.9ZM 139 187.7L 117 199.1L 120.2 219.9L 144.3 207.5ZM 120.2 219.9L 150.6 225.2L 148.6 204.5L 117 199.1ZM 148.6 204.5L 136.1 209.2L 143.1 227.9L 150.6 225.2Z" fill-rule="nonzero"></path></g></g></g><g id="g-root-cp_2_g-2_v64clb1o9uryn-fill" data-item-order="-339242" transform="translate(321, 297)"><g id="cp_2_g-2_v64clb1o9uryn-fill" stroke="none" fill="#c8ffe5"><g><path d="M 71 94.5L 74.2 95.1L 89.2 77.4L 74.4 74.8ZM 89.2 77.4L 78.2 45.5L 61 56.9L 74.2 95.1ZM 61 56.9L 112.8 103.8L 128.7 91.2L 78.2 45.5ZM 128.7 91.2L 82.8 8.7L 66.6 20.7L 112.8 103.8ZM 66.6 20.7L 129.2 85.2L 145.2 72.9L 82.8 8.7ZM 145.2 72.9L 105.3 6.4L 89.5 18.8L 129.2 85.2ZM 89.5 18.8L 143.1 71.6L 159.5 59.7L 105.3 6.4ZM 159.5 59.7L 131.3 2.8L 114.8 14.5L 143.1 71.6ZM 114.8 14.5L 151.4 52.1L 165.8 38.1L 131.3 2.8Z" fill-rule="nonzero"></path></g></g><g id="cp_2_g-2_v64clb1o9uryn-fill" stroke="none" fill="#c8ffe5"><g><path d="M 231.9 60.3L 230.9 48.8L 210.6 46.7L 212 62.2ZM 210.6 46.7L 197.9 87.9L 219.5 85.7L 230.9 48.8ZM 219.5 85.7L 205.4 59.8L 185.3 64.9L 197.9 87.9ZM 185.3 64.9L 185.1 114.9L 205.1 110.7L 205.4 59.8ZM 205.1 110.7L 178.8 52.8L 159.3 58.3L 185.1 114.9ZM 159.3 58.3L 168.1 130.6L 187.6 125.3L 178.8 52.8ZM 187.6 125.3L 167.5 78.6L 148.3 84.5L 168.1 130.6ZM 148.3 84.5L 159.7 142.2L 178.7 135.1L 167.5 78.6ZM 178.7 135.1L 156.2 95.6L 136.3 101.2L 159.7 142.2ZM 136.3 101.2L 138.1 160.7L 158 155.4L 156.2 95.6ZM 158 155.4L 132.2 108.1L 112.3 113.3L 138.1 160.7ZM 112.3 113.3L 112.6 162.4L 132.6 158.1L 132.2 108.1ZM 132.6 158.1L 115.5 119.5L 95.4 123.6L 112.6 162.4ZM 95.4 123.6L 94.7 168.7L 114.8 163.1L 115.5 119.5ZM 114.8 163.1L 87.9 119.6L 68.2 125.7L 94.7 168.7ZM 68.2 125.7L 70.4 175.4L 90.2 170.7L 87.9 119.6ZM 90.2 170.7L 62.2 108.4L 42.8 114.2L 70.4 175.4ZM 42.8 114.2L 55.5 193.3L 74.9 188.2L 62.2 108.4ZM 74.9 188.2L 51.6 125.6L 28.8 121.9L 55.5 193.3ZM 28.8 121.9L 8.8 146.6L 26.8 156.2L 51.6 125.6ZM 26.8 156.2L 29.1 148.6L 9.9 142.9L 8.8 146.6Z" fill-rule="nonzero"></path></g></g></g><g id="g-root-cp_1_g-1_qqaugv1o9usqy-fill" data-item-order="-339236" transform="translate(381, 134.9530029296875)"><g id="cp_1_g-1_qqaugv1o9usqy-fill" stroke="none" fill="#d1f4ff"><g><path d="M 53 5.1L 44.2 10.8L 48.3 32.1L 64 21.8ZM 48.3 32.1L 81.8 38.9L 84.2 19L 44.2 10.8ZM 84.2 19L 68.9 18.4L 65.1 38.2L 81.8 38.9ZM 65.1 38.2L 102.6 51.7L 101.1 29.9L 68.9 18.4ZM 101.1 29.9L 48 57.8L 54.5 77L 102.6 51.7ZM 54.5 77L 120.3 66L 114.8 46.6L 48 57.8ZM 114.8 46.6L 67.3 66L 71.6 85.9L 120.3 66ZM 71.6 85.9L 143.9 83L 138.7 63.2L 67.3 66ZM 138.7 63.2L 90 88.6L 96.4 107.8L 143.9 83ZM 96.4 107.8L 157.4 97.5L 150.8 78.3L 90 88.6ZM 150.8 78.3L 103.5 103.9L 109.2 123.5L 157.4 97.5ZM 109.2 123.5L 161.5 120L 156.3 100.3L 103.5 103.9ZM 156.3 100.3L 115.2 120.3L 120.1 140.2L 161.5 120ZM 120.1 140.2L 171.1 138.6L 166.8 118.7L 115.2 120.3ZM 166.8 118.7L 120.7 138L 123.7 158.4L 171.1 138.6ZM 123.7 158.4L 168.9 163.1L 165.6 142.6L 120.7 138ZM 165.6 142.6L 126.3 160.6L 130.2 180.8L 168.9 163.1ZM 130.2 180.8L 189.3 183.6L 185.4 163.4L 126.3 160.6ZM 185.4 163.4L 123.1 191.5L 126.4 211.9L 189.3 183.6ZM 126.4 211.9L 161 215.4L 157.2 195L 123.1 191.5ZM 157.2 195L 132.8 207.3L 141.8 225.2L 161 215.4ZM 126.2 165.5L 107.1 172.1L 113.6 191L 132.8 184.4Z" fill-rule="nonzero"></path></g></g><g id="cp_1_g-1_qqaugv1o9usqy-fill" stroke="none" fill="#d1f4ff"><g><path d="M 85.9 174.9L 88.9 171.6L 79.5 152.2L 71.1 161.4ZM 79.5 152.2L 28.7 155.5L 33.7 175.2L 88.9 171.6ZM 33.7 175.2L 105.5 142.4L 98.7 123.5L 28.7 155.5ZM 98.7 123.5L 7.4 148.5L 14.4 167.3L 105.5 142.4ZM 14.4 167.3L 96 128L 90.5 108.4L 7.4 148.5ZM 90.5 108.4L 8 117L 13 136.6L 96 128ZM 13 136.6L 77.4 109.8L 72.5 90.1L 8 117ZM 72.5 90.1L 9.9 96.1L 18.8 115.3L 77.4 109.8ZM 18.8 115.3L 31.2 103.3L 17.4 88.9L 9.9 96.1ZM 27.9 102.2L 56.6 91.7L 49.7 72.9L 21 83.5Z" fill-rule="nonzero"></path></g></g></g><g id="g-root-tx_thealgor_mahccf1o9utj9-fill" data-item-order="0" transform="translate(188, 38)"><g id="tx_thealgor_mahccf1o9utj9-fill" stroke="none" fill="#484848"><g><text style="font: bold 25px &quot;Shantell Sans&quot;, cursive; white-space: pre;" font-weight="bold" font-size="25px" font-family="'Shantell Sans', cursive"><tspan x="12" y="45" dominant-baseline="ideographic">The Algorithmic Trading Cycle</tspan></text></g></g></g><g id="g-root-tx_evaluate_1cynb9b1o9usjo-fill" data-item-order="0" transform="translate(38, 122)"><g id="tx_evaluate_1cynb9b1o9usjo-fill" stroke="none" fill="#484848"><g><text style="font: bold 20px &quot;Shantell Sans&quot;, cursive; white-space: pre;" font-weight="bold" font-size="20px" font-family="'Shantell Sans', cursive"><tspan x="12" y="35" dominant-baseline="ideographic">Evaluate </tspan><tspan x="12" y="59" dominant-baseline="ideographic">Performance</tspan></text></g></g></g><g id="g-root-tx_designin_4jtsxr1o9usqo-fill" data-item-order="0" transform="translate(578, 122)"><g id="tx_designin_4jtsxr1o9usqo-fill" stroke="none" fill="#484848"><g><text style="font: bold 20px &quot;Shantell Sans&quot;, cursive; white-space: pre;" font-weight="bold" font-size="20px" font-family="'Shantell Sans', cursive"><tspan x="83.11" y="35" dominant-baseline="ideographic">Design </tspan><tspan x="21.41" y="59" dominant-baseline="ideographic">Instructions</tspan></text></g></g></g><g id="g-root-tx_4_4mv271o9qjv0-fill" data-item-order="0" transform="translate(368, 139)"><g id="tx_4_4mv271o9qjv0-fill" stroke="none" fill="#484848"><g><text style="font: bold 25px &quot;Shantell Sans&quot;, cursive; white-space: pre;" font-weight="bold" font-size="25px" font-family="'Shantell Sans', cursive"><tspan x="13.25" y="45" dominant-baseline="ideographic">4</tspan></text></g></g></g><g id="g-root-tx_assesstr_1430b0f1o9utcd-fill" data-item-order="0" transform="translate(38, 182)"><g id="tx_assesstr_1430b0f1o9utcd-fill" stroke="none" fill="#484848"><g><text style="font: 15px &quot;Shantell Sans&quot;, cursive; white-space: pre;" font-size="15px" font-family="'Shantell Sans', cursive"><tspan x="12" y="32" dominant-baseline="ideographic">Assess trade </tspan><tspan x="12" y="50" dominant-baseline="ideographic">outcomes and </tspan><tspan x="12" y="68" dominant-baseline="ideographic">adjust rules</tspan></text></g></g></g><g id="g-root-tx_createpr_1upaunz1o9utc9-fill" data-item-order="0" transform="translate(614, 182)"><g id="tx_createpr_1upaunz1o9utc9-fill" stroke="none" fill="#484848"><g><text style="font: 15px &quot;Shantell Sans&quot;, cursive; white-space: pre;" font-size="15px" font-family="'Shantell Sans', cursive"><tspan x="34.42" y="32" dominant-baseline="ideographic">Create pre-</tspan><tspan x="24.34" y="50" dominant-baseline="ideographic">programmed </tspan><tspan x="21.95" y="68" dominant-baseline="ideographic">trading rules</tspan></text></g></g></g><g id="g-root-ic_incr_zn6svz1o9uu4m-fill" data-item-order="0" transform="translate(318, 234)"></g><g id="g-root-ic_gear_4pg5vj1o9nqx0-fill" data-item-order="0" transform="translate(396, 234)"></g><g id="g-root-tx_3_zntd4v1o9ql8i-fill" data-item-order="0" transform="translate(230, 278)"><g id="tx_3_zntd4v1o9ql8i-fill" stroke="none" fill="#484848"><g><text style="font: bold 25px &quot;Shantell Sans&quot;, cursive; white-space: pre;" font-weight="bold" font-size="25px" font-family="'Shantell Sans', cursive"><tspan x="13.25" y="45" dominant-baseline="ideographic">3</tspan></text></g></g></g><g id="g-root-tx_1_93e8qn1o9qk91-fill" data-item-order="0" transform="translate(505, 278)"><g id="tx_1_93e8qn1o9qk91-fill" stroke="none" fill="#484848"><g><text style="font: bold 25px &quot;Shantell Sans&quot;, cursive; white-space: pre;" font-weight="bold" font-size="25px" font-family="'Shantell Sans', cursive"><tspan x="16.31" y="45" dominant-baseline="ideographic">1</tspan></text></g></g></g><g id="g-root-ic_robo_1d0iqin1oa0eml-fill" data-item-order="0" transform="translate(318, 312)"></g><g id="g-root-ic_view_zn6w1r1o9i6mi-fill" data-item-order="0" transform="translate(396, 312)"></g><g id="g-root-tx_executet_1q9hcjj1o9uu4i-fill" data-item-order="0" transform="translate(38, 350)"><g id="tx_executet_1q9hcjj1o9uu4i-fill" stroke="none" fill="#484848"><g><text style="font: bold 20px &quot;Shantell Sans&quot;, cursive; white-space: pre;" font-weight="bold" font-size="20px" font-family="'Shantell Sans', cursive"><tspan x="12" y="35" dominant-baseline="ideographic">Execute </tspan><tspan x="12" y="59" dominant-baseline="ideographic">Trades</tspan></text></g></g></g><g id="g-root-tx_analyzed_deuc3j1o9uuby-fill" data-item-order="0" transform="translate(626, 350)"><g id="tx_analyzed_deuc3j1o9uuby-fill" stroke="none" fill="#484848"><g><text style="font: bold 20px &quot;Shantell Sans&quot;, cursive; white-space: pre;" font-weight="bold" font-size="20px" font-family="'Shantell Sans', cursive"><tspan x="19.42" y="35" dominant-baseline="ideographic">Analyze </tspan><tspan x="53.59" y="59" dominant-baseline="ideographic">Data</tspan></text></g></g></g><g id="g-root-tx_automati_1hegtdr1o9urrf-fill" data-item-order="0" transform="translate(38, 410)"><g id="tx_automati_1hegtdr1o9urrf-fill" stroke="none" fill="#484848"><g><text style="font: 15px &quot;Shantell Sans&quot;, cursive; white-space: pre;" font-size="15px" font-family="'Shantell Sans', cursive"><tspan x="12" y="32" dominant-baseline="ideographic">Automatically </tspan><tspan x="12" y="50" dominant-baseline="ideographic">perform trades </tspan><tspan x="12" y="68" dominant-baseline="ideographic">based on rules</tspan></text></g></g></g><g id="g-root-tx_2_144vtfj1o9qmmg-fill" data-item-order="0" transform="translate(368, 419)"><g id="tx_2_144vtfj1o9qmmg-fill" stroke="none" fill="#484848"><g><text style="font: bold 25px &quot;Shantell Sans&quot;, cursive; white-space: pre;" font-weight="bold" font-size="25px" font-family="'Shantell Sans', cursive"><tspan x="13.25" y="45" dominant-baseline="ideographic">2</tspan></text></g></g></g><g id="g-root-tx_processm_8znb271o9uryf-fill" data-item-order="0" transform="translate(590, 410)"><g id="tx_processm_8znb271o9uryf-fill" stroke="none" fill="#484848"><g><text style="font: 15px &quot;Shantell Sans&quot;, cursive; white-space: pre;" font-size="15px" font-family="'Shantell Sans', cursive"><tspan x="29.44" y="29" dominant-baseline="ideographic">Process market </tspan><tspan x="17.44" y="47" dominant-baseline="ideographic">data for triggers</tspan></text></g></g></g><g id="g-root-tf_1q5qi0v1o9qmf6-stroke" data-item-order="-655776"></g><g id="g-root-cp_4_g-4_1414vr31o9uubl-stroke" data-item-order="-339254" transform="translate(219.26199340820312, 110)"><g id="cp_4_g-4_1414vr31o9uubl-stroke" fill="none" stroke-linecap="round" stroke-linejoin="round" stroke-miterlimit="4" stroke="#484848" stroke-width="4"><g><path d="M 144.3 99C 129.5 105.1 114.3 110.8 103.5 122.1C 90.9 135.5 81 151.1 74.7 169.1C 85.6 173.9 93 184.2 93.7 197C 107.5 195.2 121.6 198.5 135.5 197C 147.5 195.7 159.7 196.2 171.7 197C 172.3 170.9 173.7 144.7 171.7 118.7C 159.1 118.5 148.4 110.5 144.3 99"></path><path d="M 144.268281 99C 110.909781 108.5921 84.540081 135.2141 74.738281 169.0897C 85.807381 173.3228 93.684381 184.2195 93.684381 197L 171.738281 197L 171.738281 118.7039C 159.088981 118.7039 148.316781 110.4867 144.268281 99Z"></path></g></g><g id="cp_4_g-4_1414vr31o9uubl-stroke" fill="none" stroke-linecap="round" stroke-linejoin="round" stroke-miterlimit="4" stroke="#484848" stroke-width="4"><g><path d="M 10 164.1C 15.9 153.7 25.4 145.8 32.2 136C 42.3 147.6 52.1 159.4 60.8 172C 64.5 148.7 77.6 128.2 94.7 113.3C 115.3 95.4 141.5 85.4 170.7 83.6C 172.4 90.6 170.9 97.9 169.7 105C 190 89.1 210.1 72.9 230.7 57.5C 221.4 49.2 211 42.4 201.3 34.6C 190.9 26.2 181.1 17 169.7 10C 169.7 17.3 170.3 24.7 170.7 32C 145.5 31.9 121.1 36.6 100.3 48C 79.6 59.2 58.9 71.7 45.3 90.7C 29.6 112.7 15.6 136.5 10 164.1"></path><path d="M 10 164.0894L 32.2374 136L 60.7689 172.0398C 72.0703 121.4216 117.0144 83.6049 170.7374 83.6049L 169.7374 105L 230.7374 57.5L 169.7374 10L 170.7374 32C 91.3642 32 25.1609 88.7309 10 164.0894Z"></path></g></g></g><g id="g-root-cp_3_g-3_v64clb1o9uryk-stroke" data-item-order="-339248" transform="translate(194, 236)"><g id="cp_3_g-3_v64clb1o9uryk-stroke" fill="none" stroke-linecap="round" stroke-linejoin="round" stroke-miterlimit="4" stroke="#484848" stroke-width="4"><g><path d="M 99 98.4C 110.2 93.7 120.1 83.6 118.7 71C 132.5 70.2 146.3 71 160.1 71C 172.4 71 184.7 70.8 197 71C 196.6 82.8 196.3 94.7 197 106.5C 197.9 120.9 197.3 135.4 197 149.8C 184.3 150.5 172.6 157.5 169.4 169C 152.8 165 139 154.9 126.3 144.4C 112.5 132.9 102.8 116.4 99 98.4"></path><path d="M 99 98.3901C 110.4681 94.4629 118.7021 83.6869 118.7021 71L 197 71L 197 149.838C 184.3112 149.838 173.5053 157.8292 169.4441 169C 135.1569 159.4453 108.2314 132.4974 99 98.3901Z"></path></g></g><g id="cp_3_g-3_v64clb1o9uryk-stroke" fill="none" stroke-linecap="round" stroke-linejoin="round" stroke-miterlimit="4" stroke="#484848" stroke-width="4"><g><path d="M 57.5 10C 65.3 18.6 71 29 79.1 37.3C 88.9 47.2 96.3 59.1 105 70C 97.8 69.8 90.5 69.4 83.3 70C 83.3 70.3 83.3 70.7 83.3 71C 84.2 83.8 85.6 96.1 89.3 107.7C 93 119.3 98.2 130.5 106.1 139.4C 114.4 148.8 122.4 158.7 133.2 165.1C 144.8 172.2 156.8 179.6 170.7 181.5C 158.8 189.5 147.8 198.7 137 208C 148.9 215.3 159 225.2 170 233.9C 155.9 229.7 141.1 228.1 128.5 221.4C 115.8 214.7 103.1 207.9 92.2 198.7C 79.8 188.3 68 176.8 59.7 162.8C 52.4 150.5 44.6 138.1 40.6 124C 35.9 107.1 33.8 89.4 32 71C 32 70.7 31.9 70.3 32 70C 24.8 68.5 17.3 70 10 70C 17.7 60.2 24.9 50 33.3 40.6C 41.9 30.9 49.3 20.1 57.5 10"></path><path d="M 57.5 10L 105 70L 83.2965 70C 83.2936 70.333 83.2922 70.6663 83.2922 71C 83.2922 124.8588 120.6133 169.9476 170.6558 181.5167L 137 208L 169.9534 233.9305C 91.7571 221.3757 32 153.2089 32 71C 32 70.6664 32.001 70.3331 32.0029 70L 10 70L 57.5 10Z"></path></g></g></g><g id="g-root-cp_2_g-2_v64clb1o9uryn-stroke" data-item-order="-339242" transform="translate(321, 297)"><g id="cp_2_g-2_v64clb1o9uryn-stroke" fill="none" stroke-linecap="round" stroke-linejoin="round" stroke-miterlimit="4" stroke="#484848" stroke-width="4"><g><path d="M 70 88.8C 82.3 90.8 94.8 96.3 97 108C 130.9 99.5 157 71.5 166 37.4C 154.7 33.7 148.2 22.6 146.7 10C 121.1 10.6 95.6 10.9 70 10C 70.5 23.1 68.8 36.2 70 49.3C 71.2 62.4 68.3 75.8 70 88.8"></path><path d="M 70 88.838C 82.4299 88.838 93.0152 96.8292 96.9935 108C 130.581 98.4453 156.957 71.4974 166 37.3901C 154.766 33.4629 146.7 22.6869 146.7 10L 70 10L 70 88.838Z"></path></g></g><g id="cp_2_g-2_v64clb1o9uryn-stroke" fill="none" stroke-linecap="round" stroke-linejoin="round" stroke-miterlimit="4" stroke="#484848" stroke-width="4"><g><path d="M 207.5 67C 199.9 54 187.4 44.3 179.7 31.3C 173.4 59.3 158.6 83.9 136.8 100.6C 118.4 114.6 95.6 121.5 71 123.4C 71.9 115.3 71.3 107.1 71 99C 61.7 107.9 50.3 114.5 40.6 122.9C 30.8 131.4 19.9 138.6 10 147C 30.4 162.9 49.7 180.3 71 195C 72.1 188.4 71.3 181.6 71 175C 89.6 175.9 107.3 170.7 124.2 165.4C 144.2 159.1 163 148.5 177.5 133.8C 190.3 120.7 203.3 107.5 211.8 91.2C 220.6 74.4 226.8 56.3 230.8 37.1C 223.4 47.3 215.9 57.6 207.5 67"></path><path d="M 207.5 67.001719L 179.7184 31.324219C 169.9232 83.120719 125.1097 122.432019 71 123.379319L 71 99.001719L 10 147.001719L 71 195.001719L 71 174.989719C 151.5139 174.021619 218.0702 114.680719 230.8029 37.075919L 207.5 67.001719Z"></path></g></g></g><g id="g-root-cp_1_g-1_qqaugv1o9usqy-stroke" data-item-order="-339236" transform="translate(381, 134.9530029296875)"><g id="cp_1_g-1_qqaugv1o9usqy-stroke" fill="none" stroke-linecap="round" stroke-linejoin="round" stroke-miterlimit="4" stroke="#484848" stroke-width="4"><g><path d="M 32.3 61.1C 44.1 51 57.1 42.5 69 32.5C 58.8 25.8 49.2 18.2 40 10C 53.8 13.8 67.4 17 79.8 23.2C 94.1 30.3 107 39.5 119 49.7C 130.6 59.5 141.7 70.7 148.1 84.6C 154.1 97.6 161 110.2 166 124.1C 170.8 137.8 173 152.8 173 168C 180.2 166.8 187.7 167 195 168C 178 187.4 162.1 207.8 147.5 229C 133.2 207.6 115.8 188.4 100 168C 107.2 167.9 114.4 168 121.6 168C 122.2 141.9 110.3 118.6 95.4 99.3C 80.2 79.6 57.4 66.7 32.3 61.1"></path><path d="M 32.347656 61.089L 69.000256 32.548L 40.043856 10C 114.515956 24.3552 171.092856 89.3865 172.952956 168.048L 195.000256 168.048L 147.500256 229.048L 100.000256 168.048L 121.639256 168.048C 119.820256 115.2602 82.138656 71.6411 32.347656 61.089Z"></path></g></g><g id="cp_1_g-1_qqaugv1o9usqy-stroke" fill="none" stroke-linecap="round" stroke-linejoin="round" stroke-miterlimit="4" stroke="#484848" stroke-width="4"><g><path d="M 105 144.1C 94.4 148.9 85.9 159.3 86.4 172C 61 172.9 35.5 172.9 10 172C 10.9 159.9 9.8 147.6 10 135.3C 10.2 121.5 10.5 107.6 10 93.8C 22.4 93 31.2 84.8 36.9 74C 69.3 84.6 95.8 110.2 105 144.1"></path><path d="M 105 144.136575C 94.1591 148.369675 86.4445 159.266375 86.4445 172.046875L 10 172.046875L 10 93.750775C 22.3885 93.750775 32.9386 85.533575 36.9036 74.046875C 69.5743 83.638975 95.4003 110.260975 105 144.136575Z"></path></g></g></g><g id="g-root-tx_thealgor_mahccf1o9utj9-stroke" data-item-order="0" transform="translate(188, 38)"></g><g id="g-root-tx_evaluate_1cynb9b1o9usjo-stroke" data-item-order="0" transform="translate(38, 122)"></g><g id="g-root-tx_designin_4jtsxr1o9usqo-stroke" data-item-order="0" transform="translate(578, 122)"></g><g id="g-root-tx_4_4mv271o9qjv0-stroke" data-item-order="0" transform="translate(368, 139)"></g><g id="g-root-tx_assesstr_1430b0f1o9utcd-stroke" data-item-order="0" transform="translate(38, 182)"></g><g id="g-root-tx_createpr_1upaunz1o9utc9-stroke" data-item-order="0" transform="translate(614, 182)"></g><g id="g-root-ic_incr_zn6svz1o9uu4m-stroke" data-item-order="0" transform="translate(318, 234)"><g id="ic_incr_zn6svz1o9uu4m-stroke" fill="none" stroke-linecap="round" stroke-linejoin="round" stroke-miterlimit="4" stroke="#484848" stroke-width="2"><g><path d="M 11 56.599998C 26.4 57.200001 42.200001 52.799999 57 56.599998M 19 56.599998C 19.4 55 18.6 53 19 51.599998C 19.200001 51 18.6 50.400002 18 50.599998C 16.6 50.599998 15.4 50.799999 14 50.599998C 13.4 50.400002 12.8 51 13 51.599998C 13.6 53 13.2 54.799999 13 56.599998M 31 56.599998C 31.200001 52.200001 31.4 47.799999 31 43.599998C 31 43 30.6 42.400002 30 42.599998C 28.6 42.599998 27.4 42.799999 26 42.599998C 25.4 42.400002 25 43 25 43.599998C 25 47.799999 25.200001 52.200001 25 56.599998M 43 56.599998C 41.599998 49.599998 41.799999 42.400002 43 35.599998C 43.200001 35 42.599998 34.400002 42 34.599998C 40.599998 34.799999 39.200001 34.799999 38 34.599998C 37.400002 34.400002 36.799999 35 37 35.599998C 38.799999 42.200001 35.799999 49.599998 37 56.599998M 55 56.599998C 53.400002 47 55.200001 37.200001 55 27.6C 55 27 54.599998 26.6 54 26.6C 52.599998 26.6 51.200001 27 50 26.6C 49.400002 26.4 49 27 49 27.6C 48.599998 37.200001 46 47.400002 49 56.599998M 16 36.599998C 26 26.200001 40 20.6 52 12.6M 51 20.6C 51.200001 17.799999 51.599998 15.2 52 12.6C 49.599998 11.2 46.400002 12.8 44 11.6"></path><path d="M 11.008 56.5L 57.007999 56.5M 19 56.5L 19 51.5C 19 50.947716 18.552284 50.5 18 50.5L 14 50.5C 13.447716 50.5 13 50.947716 13 51.5L 13 56.5M 31 56.5L 31 43.5C 31 42.947716 30.552284 42.5 30 42.5L 26 42.5C 25.447716 42.5 25 42.947716 25 43.5L 25 56.5M 43 56.5L 43 35.5C 43 34.947716 42.552284 34.5 42 34.5L 38 34.5C 37.447716 34.5 37 34.947716 37 35.5L 37 56.5M 55 56.5L 55 27.5C 55 26.947716 54.552284 26.5 54 26.5L 50 26.5C 49.447716 26.5 49 26.947716 49 27.5L 49 56.5M 16.007999 36.5L 52.007999 12.5M 51.007999 20.5L 52.007999 12.5L 44.007999 11.5"></path></g></g></g><g id="g-root-ic_gear_4pg5vj1o9nqx0-stroke" data-item-order="0" transform="translate(396, 234)"><g id="ic_gear_4pg5vj1o9nqx0-stroke" fill="none" stroke-linecap="round" stroke-linejoin="round" stroke-miterlimit="4" stroke="#484848" stroke-width="2"><g><path d="M 31 14.8C 32 15.4 32.799999 16.200001 34 16.200001C 35.200001 16.200001 36 15.6 37 14.8C 37.599998 14.2 38.400002 13.6 38.799999 12.8C 39.599998 11.4 41.599998 11.2 43.200001 11.8C 44.799999 12.4 46 14 45.599998 15.6C 45.400002 16.6 45.599998 17.4 45.400002 18.4C 45.400002 19.6 45.799999 20.6 46.599998 21.4C 47.400002 22.200001 48.400002 22.6 49.599998 22.6C 50.599998 22.6 51.400002 22.4 52.400002 22.4C 54 22.4 55.200001 23.6 56.200001 24.799999C 57.200001 26 56.200001 27.799999 55.200001 29.200001C 54.599998 30 53.799999 30.4 53.200001 31C 52.200001 31.799999 52 33 51.799999 34C 51.599998 35 52.200001 36.200001 53.200001 37C 53.799999 37.599998 54.599998 38.200001 55.200001 38.799999C 56.400002 40 56.599998 41.599998 56.200001 43.200001C 55.799999 44.799999 54 45.200001 52.400002 45.599998C 51.400002 45.799999 50.599998 45.599998 49.599998 45.400002C 48.400002 45.400002 47.400002 45.799999 46.599998 46.599998C 45.799999 47.400002 45.400002 48.400002 45.400002 49.599998C 45.599998 50.599998 45.799999 51.400002 45.599998 52.400002C 45.200001 54 44.400002 55 43.200001 56.200001C 42 57.400002 39.799999 56.599998 38.799999 55.200001C 38.200001 54.400002 37.799999 53.599998 37 53.200001C 36 52.599998 35 51.400002 34 51.799999C 33 52.200001 32 52.400002 31 53.200001C 30.4 53.599998 30 54.599998 29.200001 55.200001C 28 56.200001 26.4 56.599998 24.799999 56.200001C 23.200001 55.799999 22.200001 54 22.4 52.400002C 22.4 51.400002 22.200001 50.400002 22.6 49.599998C 23 48.599998 22.200001 47.200001 21.4 46.599998C 20.6 46 19.4 45.200001 18.4 45.400002C 17.6 45.799999 16.6 45.799999 15.6 45.599998C 14 45.200001 12.4 44.799999 11.8 43.200001C 11.2 41.599998 11.4 39.599998 12.8 38.799999C 13.6 38.400002 14 37.200001 14.8 37C 15.8 36.400002 16.4 35.200001 16.200001 34C 16 33 15.4 32 14.8 31C 14.4 30.4 13.4 29.799999 12.8 29.200001C 11.6 28 10.8 26 11.8 24.799999C 12.8 23.6 14 22.799999 15.6 22.4C 16.6 22.200001 17.6 22.799999 18.4 22.6C 19.4 22.200001 20.6 22.200001 21.4 21.4C 22.200001 20.6 22.4 19.6 22.6 18.4C 22.6 17.4 22.200001 16.6 22.4 15.6C 22.799999 14 23.200001 11.8 24.799999 11.8C 26.4 11.8 28.200001 11.4 29.200001 12.8C 29.799999 13.6 30.4 14.2 31 14.8M 44.599998 39.400002C 44.400002 38.799999 44.799999 38.200001 44.599998 37.599998C 42.799999 32 39.799999 25.4 34 27C 28.200001 28.4 21.200001 32.200001 23.4 37.599998C 23.6 38.200001 23.200001 38.799999 23.4 39.400002M 29.6 25.200001C 30.4 28 29 31.200001 29.6 34M 38.400002 25.200001C 38.400002 28.200001 39.400002 31.200001 38.400002 34M 20.6 39.400002C 29.6 39.400002 38.400002 38.799999 47.400002 39.400002"></path><path d="M 31.094 14.872C 31.837202 15.694174 32.893707 16.163324 34.001999 16.163324C 35.110298 16.163324 36.166801 15.694174 36.91 14.872L 38.790001 12.788C 39.902687 11.564045 41.663918 11.170254 43.191917 11.803782C 44.719917 12.437309 45.685806 13.9618 45.605999 15.614L 45.462002 18.414C 45.404415 19.521751 45.819332 20.601952 46.603687 21.386309C 47.388042 22.170666 48.468246 22.585579 49.575996 22.528L 52.375999 22.383999C 54.033871 22.295765 55.567364 23.261999 56.203354 24.795567C 56.839344 26.329136 56.439739 28.097052 55.206001 29.208L 53.122002 31.087999C 52.299828 31.831202 51.830677 32.887703 51.830677 33.996002C 51.830677 35.104294 52.299828 36.160797 53.122002 36.903999L 55.206001 38.784C 56.437366 39.89481 56.836018 41.660545 56.201347 43.192654C 55.566673 44.724758 54.036163 45.691345 52.380001 45.606003L 49.580002 45.462002C 48.472595 45.405693 47.39315 45.821018 46.609085 46.605083C 45.82502 47.389149 45.409695 48.468597 45.466 49.576L 45.610001 52.375999C 45.695343 54.032166 44.72876 55.562675 43.196655 56.197346C 41.664551 56.83202 39.898811 56.433365 38.788002 55.202003L 36.908001 53.118C 36.164799 52.295826 35.108295 51.826675 34 51.826675C 32.891705 51.826675 31.835201 52.295826 31.092001 53.118L 29.205999 55.203999C 28.094242 56.432869 26.329847 56.829887 24.798866 56.195683C 23.267883 55.561474 22.301094 54.03307 22.383999 52.378002L 22.528 49.577999C 22.584307 48.470596 22.16898 47.391148 21.384916 46.607086C 20.600853 45.823021 19.521404 45.407692 18.414001 45.464001L 15.614 45.608002C 13.962785 45.686451 12.439985 44.720097 11.807849 43.192657C 11.175713 41.665218 11.570261 39.905365 12.794001 38.793999L 14.878 36.914001C 15.700174 36.170799 16.169325 35.114296 16.169325 34.006001C 16.169325 32.897705 15.700174 31.841202 14.878 31.098L 12.794 29.218C 11.563487 28.106556 11.165386 26.341105 11.79982 24.809124C 12.434254 23.277142 13.963973 22.310051 15.62 22.394001L 18.42 22.538C 19.528839 22.595037 20.609856 22.179173 21.394577 21.393688C 22.179302 20.608202 22.594114 19.526783 22.535999 18.417999L 22.392 15.618C 22.311729 13.966041 23.277439 12.441596 24.805328 11.808376C 26.333218 11.175157 28.094173 11.56956 29.206001 12.794001L 31.094 14.874001ZM 44.688 39.375999L 44.688 37.594002C 44.689503 31.690117 39.903881 26.903276 34 26.903276C 28.096117 26.903276 23.310495 31.690117 23.312 37.593998L 23.312 39.374001M 29.546 25.125999L 29.546 34.031998M 38.452 25.125999L 38.452 34.031998M 20.639999 39.375999L 47.360001 39.375999"></path></g></g></g><g id="g-root-tx_3_zntd4v1o9ql8i-stroke" data-item-order="0" transform="translate(230, 278)"></g><g id="g-root-tx_1_93e8qn1o9qk91-stroke" data-item-order="0" transform="translate(505, 278)"></g><g id="g-root-ic_robo_1d0iqin1oa0eml-stroke" data-item-order="0" transform="translate(318, 312)"><g id="ic_robo_1d0iqin1oa0eml-stroke" fill="none" stroke-linecap="round" stroke-linejoin="round" stroke-miterlimit="4" stroke="#484848" stroke-width="2"><g><path d="M 10 10M 36 45.400002C 38.200001 43.200001 41.400002 41.599998 44.400002 40.599998C 46.400002 39.799999 49 40 49.599998 42C 50.200001 44 50 46.200001 48.200001 47.200001C 44.400002 49 40.599998 51.200001 37 53.599998C 34.799999 55 32 56 29.6 55C 27.799999 54.200001 25.200001 55.200001 23.4 54C 22.200001 54.599998 21.200001 55.799999 19.799999 56.200001M 10 10M 11.8 46.400002C 15.6 44.799999 18.6 40.799999 22.799999 40C 25 39.799999 27.200001 37.599998 29.200001 38.599998C 30.6 39.200001 32.599998 38.200001 34.200001 38.799999C 36.200001 39 37.200001 40.599998 37.799999 42.599998C 38 44.200001 36.200001 45.599998 34.599998 45.799999C 32.400002 46.200001 30.200001 45.200001 28 45.599998M 40 17.6C 43.799999 16.799999 47.799999 17.4 51.599998 17.6C 51.599998 17.6 57.799999 18 56.200001 22.200001C 55.400002 24.4 56.599998 27 56.200001 29.200001C 56.200001 29.200001 56.200001 33 51.599998 33.799999C 47.799999 34.599998 43.799999 33 40 33.799999C 40 33.799999 36.799999 33.599998 35.400002 29.200001C 34.599998 27 35.400002 24.6 35.400002 22.200001C 35.400002 22.200001 35.599998 16 40 17.6M 10 10M 45.799999 11.2C 45.200001 13.2 46.200001 15.6 45.799999 17.6M 10 10M 42.400002 24.4C 42.200001 25.200001 42.400002 26.200001 42.400002 27.200001M 10 10M 49.200001 24.4C 49.400002 25.200001 49.200001 26.200001 49.200001 27.200001"></path><path d="M 10 10M 35.902199 45.429199L 44.389198 40.529198C 46.294601 39.429199 48.5802 40.188202 49.5802 41.9202C 50.680199 43.825401 49.921398 46.111 48.189201 47.111L 36.931 53.611C 34.679199 54.910999 32.200798 55.418201 29.668819 55.0326L 23.39938 54.0644L 19.858959 56.1432M 10 10M 11.761718 46.460999L 22.87538 40.068199C 24.78064 38.968201 26.98592 38.387802 29.14476 38.527L 34.181999 38.851799C 36.240799 38.817802 37.687202 40.523201 37.721199 42.582001C 37.555199 44.294399 36.296402 45.714199 34.510799 45.821201L 27.96104 45.6768M 39.958 17.632L 51.639999 17.632C 51.639999 17.632 56.242001 17.632 56.242001 22.234001L 56.242001 29.278C 56.242001 29.278 56.242001 33.879997 51.639999 33.879997L 39.958 33.879997C 39.958 33.879997 35.356003 33.879997 35.356003 29.278L 35.356003 22.234001C 35.356003 22.234001 35.356003 17.632 39.958 17.632M 10 10M 45.796799 11.224212L 45.796799 17.63282M 10 10M 42.375 24.325241L 42.375 27.21876M 10 10M 49.222599 24.325241L 49.222599 27.21876"></path></g></g></g><g id="g-root-ic_view_zn6w1r1o9i6mi-stroke" data-item-order="0" transform="translate(396, 312)"><g id="ic_view_zn6w1r1o9i6mi-stroke" fill="none" stroke-linecap="round" stroke-linejoin="round" stroke-miterlimit="4" stroke="#484848" stroke-width="2"><g><path d="M 28.6 45C 24.6 46.200001 20.200001 44.400002 16 45C 13.8 45.400002 11.2 43.200001 12 41C 15 33.200001 9.6 24 12 16C 12.6 14 13.8 11.8 16 12C 25.799999 13.6 36.200001 13.6 46 12C 48.200001 11.6 49.799999 13.8 50 16C 50.599998 20.6 50.799999 25.200001 50 29.6M 12 19.799999C 24.6 19.6 37.799999 23.200001 50 19.799999M 12 36.400002C 17.4 37.799999 23.200001 35.599998 28.799999 36.400002M 12 28.200001C 18.799999 30.799999 26.799999 29.4 34 28.200001M 27.6 19.799999C 26.200001 28.200001 26.799999 36.799999 27.6 45M 38.599998 19.799999C 38.200001 22.6 39.400002 25.4 38.599998 28.200001M 42.200001 51.599998C 47.599998 52.799999 51.200001 47 51.799999 41.599998C 53.200001 36.200001 47.400002 29.799999 42.200001 31.4C 36.799999 30.799999 32.599998 36 32.400002 41.599998C 30.6 46.799999 36.799999 51.200001 42.200001 51.599998M 56 56C 54 53.200001 51.599998 51 49 48.599998"></path><path d="M 28.52 45.063999L 16 45.063999C 13.790861 45.063999 12 43.27314 12 41.063999L 12 16.048C 12 13.838861 13.790861 12.048 16 12.048L 46.018002 12.048C 48.227139 12.048 50.018002 13.838861 50.018002 16.048L 50.018002 29.666M 12 19.860001L 50.02 19.860001M 12 36.468002L 28.736 36.468002M 12 28.177999L 34.021999 28.177999M 27.530001 19.860001L 27.530001 45.063999M 38.662003 19.860001L 38.662003 28.177999M 42.155998 51.632C 47.618256 51.518284 51.955372 47.000343 51.846001 41.538002C 51.955372 36.075653 47.618256 31.557716 42.155998 31.444C 36.693745 31.557716 32.356628 36.075653 32.466 41.538002C 32.356628 47.000343 36.693745 51.518284 42.155998 51.632ZM 56 55.953999L 49 48.672001"></path></g></g></g><g id="g-root-tx_executet_1q9hcjj1o9uu4i-stroke" data-item-order="0" transform="translate(38, 350)"></g><g id="g-root-tx_analyzed_deuc3j1o9uuby-stroke" data-item-order="0" transform="translate(626, 350)"></g><g id="g-root-tx_automati_1hegtdr1o9urrf-stroke" data-item-order="0" transform="translate(38, 410)"></g><g id="g-root-tx_2_144vtfj1o9qmmg-stroke" data-item-order="0" transform="translate(368, 419)"></g><g id="g-root-tx_processm_8znb271o9uryf-stroke" data-item-order="0" transform="translate(590, 410)"></g></g></g></svg>