<?xml version="1.0" encoding="utf-8" standalone="yes"?>
<!DOCTYPE svg PUBLIC "-//W3C//DTD SVG 1.1//EN" "http://www.w3.org/Graphics/SVG/1.1/DTD/svg11.dtd">
<svg width="864" height="541" viewBox="0 0 864 541" style="fill:none;stroke:none;fill-rule:evenodd;clip-rule:evenodd;stroke-linecap:round;stroke-linejoin:round;stroke-miterlimit:1.5;" version="1.1" xmlns="http://www.w3.org/2000/svg" xmlns:xlink="http://www.w3.org/1999/xlink"><style class="text-font-style fontImports" data-font-family="Shantell Sans">@import url(https://fonts.googleapis.com/css2?family=Shantell+Sans:wght@300..800&amp;amp;display=block);</style><rect id="" x="0" y="0" width="864" height="540.001" style="fill: #ffffff;"></rect><g id="items" style="isolation: isolate"><g id="blend" style="mix-blend-mode: normal"><g id="g-root-tf_1q5ql731n5s745-fill" data-item-order="-699841"><g id="tf_1q5ql731n5s745-fill" stroke="none" fill="#ffffff"><g><path d="M 0 0L 864 0L 864 540L 0 540Z"></path></g></g></g><g id="g-root-cp_vertical-up_g-vertical-up_1cy0xcf1n5v0n4-fill" data-item-order="-362278" transform="translate(422, 194)"></g><g id="g-root-cp_vertical-down_g-vertical-down_142dx3j1n5v1fu-fill" data-item-order="-362274" transform="translate(422, 122)"></g><g id="g-root-cp_horizontal-line_g-horizontal-line_142dx3j1n5v1fw-fill" data-item-order="-362270" transform="translate(62, 218)"></g><g id="g-root-cp_vertical-1_g-vertical-1_142dx3j1n5v1fy-fill" data-item-order="-362238" transform="translate(422, 230)"></g><g id="g-root-cp_vertical-2_g-vertical-2_zmkez31n5v288-fill" data-item-order="-362208" transform="translate(422, 302)"></g><g id="g-root-cp_vertical-3_g-vertical-3_v7ddxr1n5uzuq-fill" data-item-order="-362174" transform="translate(422, 374)"></g><g id="g-root-cp_middle-icon_g-middle-icon_v7ddxr1n5uzus-fill" data-item-order="-362171" transform="translate(392, 146)"><g id="cp_middle-icon_g-middle-icon_v7ddxr1n5uzus-fill" stroke="none" fill="#ebebeb"><g><path d="M 10 34L 28 10L 28 18.0001L 52 18.0001L 52 10.0002L 70 34.0002L 52 58.0002L 52 50.0001L 28 50.0001L 28 58L 10 34Z"></path></g></g></g><g id="g-root-tx_cons_v7ddxr1n5wetm-fill" data-item-order="0" transform="translate(530, 152)"><g id="tx_cons_v7ddxr1n5wetm-fill" stroke="none" fill="#484848"><g><text style="font: bold 20px &quot;Shantell Sans&quot;, cursive; white-space: pre;" font-weight="bold" font-size="20px" font-family="'Shantell Sans', cursive"><tspan x="12" y="35" dominant-baseline="ideographic">Cons</tspan></text></g></g></g><g id="g-root-ic_bold_hvwvkf1n5wgej-fill" data-item-order="0" transform="translate(470, 146)"></g><g id="g-root-tx_pros_hvwvkf1n5v1fr-fill" data-item-order="0" transform="translate(122, 152)"><g id="tx_pros_hvwvkf1n5v1fr-fill" stroke="none" fill="#484848"><g><text style="font: bold 20px &quot;Shantell Sans&quot;, cursive; white-space: pre;" font-weight="bold" font-size="20px" font-family="'Shantell Sans', cursive"><tspan x="12" y="35" dominant-baseline="ideographic">Pros</tspan></text></g></g></g><g id="g-root-ic_head_1cy0xcf1n5xtse-fill" data-item-order="0" transform="translate(62, 242.0009765625)"></g><g id="g-root-tx_emotiona_1ltnxlb1n5xszp-fill" data-item-order="0" transform="translate(122, 254.0009765625)"><g id="tx_emotiona_1ltnxlb1n5xszp-fill" stroke="none" fill="#484848"><g><text style="font: bold 20px &quot;Shantell Sans&quot;, cursive; white-space: pre;" font-weight="bold" font-size="20px" font-family="'Shantell Sans', cursive"><tspan x="12" y="35" dominant-baseline="ideographic">Emotional detachment</tspan></text></g></g></g><g id="g-root-ic_2_1czwclr1n5xssr-fill" data-item-order="0" transform="translate(470, 242.0009765625)"></g><g id="g-root-tx_lackofad_1qaqdvz1n5xudl-fill" data-item-order="0" transform="translate(530, 254.0009765625)"><g id="tx_lackofad_1qaqdvz1n5xudl-fill" stroke="none" fill="#484848"><g><text style="font: bold 20px &quot;Shantell Sans&quot;, cursive; white-space: pre;" font-weight="bold" font-size="20px" font-family="'Shantell Sans', cursive"><tspan x="12" y="35" dominant-baseline="ideographic">Lack of adaptability</tspan></text></g></g></g><g id="g-root-ic_chec_dg3dfz1n5v280-fill" data-item-order="0" transform="translate(62, 146)"></g><g id="g-root-ic_1_qp22mn1n5h0qt-fill" data-item-order="0" transform="translate(62, 314.0009765625)"></g><g id="g-root-tx_consiste_v4vkr31n5gzyk-fill" data-item-order="0" transform="translate(122, 326.0009765625)"><g id="tx_consiste_v4vkr31n5gzyk-fill" stroke="none" fill="#484848"><g><text style="font: bold 20px &quot;Shantell Sans&quot;, cursive; white-space: pre;" font-weight="bold" font-size="20px" font-family="'Shantell Sans', cursive"><tspan x="12" y="35" dominant-baseline="ideographic">Consistent execution</tspan></text></g></g></g><g id="g-root-ic_1_1hbcma71n5ie4p-fill" data-item-order="0" transform="translate(470, 314.0009765625)"></g><g id="g-root-tx_inabilit_1umt4nj1n5icjs-fill" data-item-order="0" transform="translate(530, 314.0009765625)"><g id="tx_inabilit_1umt4nj1n5icjs-fill" stroke="none" fill="#484848"><g><text style="font: bold 20px &quot;Shantell Sans&quot;, cursive; white-space: pre;" font-weight="bold" font-size="20px" font-family="'Shantell Sans', cursive"><tspan x="12" y="35" dominant-baseline="ideographic">Inability to handle </tspan><tspan x="12" y="59" dominant-baseline="ideographic">volatility</tspan></text></g></g></g><g id="g-root-tx_tradingb_v7ddxr1n5uzuu-fill" data-item-order="0" transform="translate(332, 38)"><g id="tx_tradingb_v7ddxr1n5uzuu-fill" stroke="none" fill="#484848"><g><text style="font: bold 25px &quot;Shantell Sans&quot;, cursive; white-space: pre;" font-weight="bold" font-size="25px" font-family="'Shantell Sans', cursive"><tspan x="16.95" y="45" dominant-baseline="ideographic">Trading bots</tspan></text></g></g></g><g id="g-root-ic_uneq_18egnv31n5jqx3-fill" data-item-order="0" transform="translate(62, 386.0009765625)"></g><g id="g-root-tx_unbiased_1lzaaj31n5idxi-fill" data-item-order="0" transform="translate(122, 398.0009765625)"><g id="tx_unbiased_1lzaaj31n5idxi-fill" stroke="none" fill="#484848"><g><text style="font: bold 20px &quot;Shantell Sans&quot;, cursive; white-space: pre;" font-weight="bold" font-size="20px" font-family="'Shantell Sans', cursive"><tspan x="12" y="35" dominant-baseline="ideographic">Unbiased analysis</tspan></text></g></g></g><g id="g-root-tx_limitede_v305hr1n5l5vt-fill" data-item-order="0" transform="translate(530, 386.0009765625)"><g id="tx_limitede_v305hr1n5l5vt-fill" stroke="none" fill="#484848"><g><text style="font: bold 20px &quot;Shantell Sans&quot;, cursive; white-space: pre;" font-weight="bold" font-size="20px" font-family="'Shantell Sans', cursive"><tspan x="12" y="35" dominant-baseline="ideographic">Limited emotional </tspan><tspan x="12" y="59" dominant-baseline="ideographic">intelligence</tspan></text></g></g></g><g id="g-root-ic_1_qn6ndb1n5l6o2-fill" data-item-order="0" transform="translate(470, 386.0009765625)"></g><g id="g-root-tf_1q5ql731n5s745-stroke" data-item-order="-699841"></g><g id="g-root-cp_vertical-up_g-vertical-up_1cy0xcf1n5v0n4-stroke" data-item-order="-362278" transform="translate(422, 194)"><g id="cp_vertical-up_g-vertical-up_1cy0xcf1n5v0n4-stroke" fill="none" stroke-linecap="round" stroke-linejoin="round" stroke-miterlimit="4" stroke="#ffffff" stroke-width="2"><g><path d="M 10 46L 10 10"></path></g></g></g><g id="g-root-cp_vertical-down_g-vertical-down_142dx3j1n5v1fu-stroke" data-item-order="-362274" transform="translate(422, 122)"><g id="cp_vertical-down_g-vertical-down_142dx3j1n5v1fu-stroke" fill="none" stroke-linecap="round" stroke-linejoin="round" stroke-miterlimit="4" stroke="#ffffff" stroke-width="2"><g><path d="M 10 34L 10 10"></path></g></g></g><g id="g-root-cp_horizontal-line_g-horizontal-line_142dx3j1n5v1fw-stroke" data-item-order="-362270" transform="translate(62, 218)"><g id="cp_horizontal-line_g-horizontal-line_142dx3j1n5v1fw-stroke" fill="none" stroke-linecap="round" stroke-linejoin="round" stroke-miterlimit="4" stroke="#ffffff" stroke-width="2"><g><path d="M 730 10L 10 10"></path></g></g></g><g id="g-root-cp_vertical-1_g-vertical-1_142dx3j1n5v1fy-stroke" data-item-order="-362238" transform="translate(422, 230)"><g id="cp_vertical-1_g-vertical-1_142dx3j1n5v1fy-stroke" fill="none" stroke-linecap="round" stroke-linejoin="round" stroke-miterlimit="4" stroke="#ffffff" stroke-width="2"><g><path d="M 10 82L 10 10"></path></g></g></g><g id="g-root-cp_vertical-2_g-vertical-2_zmkez31n5v288-stroke" data-item-order="-362208" transform="translate(422, 302)"><g id="cp_vertical-2_g-vertical-2_zmkez31n5v288-stroke" fill="none" stroke-linecap="round" stroke-linejoin="round" stroke-miterlimit="4" stroke="#ffffff" stroke-width="2"><g><path d="M 10 82L 10 10"></path></g></g></g><g id="g-root-cp_vertical-3_g-vertical-3_v7ddxr1n5uzuq-stroke" data-item-order="-362174" transform="translate(422, 374)"><g id="cp_vertical-3_g-vertical-3_v7ddxr1n5uzuq-stroke" fill="none" stroke-linecap="round" stroke-linejoin="round" stroke-miterlimit="4" stroke="#ffffff" stroke-width="2"><g><path d="M 10 82L 10 10"></path></g></g></g><g id="g-root-cp_middle-icon_g-middle-icon_v7ddxr1n5uzus-stroke" data-item-order="-362171" transform="translate(392, 146)"><g id="cp_middle-icon_g-middle-icon_v7ddxr1n5uzus-stroke" fill="none" stroke-linecap="round" stroke-linejoin="round" stroke-miterlimit="4" stroke="#ffffff" stroke-width="2"><g><path d="M 10 34L 28 10L 28 18.0001L 52 18.0001L 52 10.0002L 70 34.0002L 52 58.0002L 52 50.0001L 28 50.0001L 28 58L 10 34ZM 30.598633 28.373182L 34.998633 39.480382M 35.198633 39.097382L 39.598633 28.660482M 49.398633 30.192482C 49.065333 29.937082 48.731933 29.681782 48.398633 29.426482C 47.798633 28.851982 46.831933 28.628482 45.498633 28.756182C 44.165333 28.883882 43.465333 29.522182 43.398633 30.671182C 43.265333 31.820282 44.231933 32.905382 46.298633 33.926782C 48.431933 34.884282 49.465333 36.001382 49.398633 37.278082C 49.398633 38.554782 48.631933 39.320782 47.098633 39.576082C 45.498633 39.767582 44.431933 39.416582 43.898633 38.522882C 43.565333 38.075982 43.265333 37.629182 42.998633 37.182382"></path></g></g></g><g id="g-root-tx_cons_v7ddxr1n5wetm-stroke" data-item-order="0" transform="translate(530, 152)"></g><g id="g-root-ic_bold_hvwvkf1n5wgej-stroke" data-item-order="0" transform="translate(470, 146)"><g id="ic_bold_hvwvkf1n5wgej-stroke" fill="none" stroke-linecap="round" stroke-linejoin="round" stroke-miterlimit="4" stroke="#484848" stroke-width="2"><g><path d="M 25 34L 12.414 46.585999C 11.633236 47.367001 11.633236 48.632999 12.414 49.414001L 18.586 55.585999C 19.367001 56.366764 20.632999 56.366764 21.414 55.585999L 34 43L 46.585999 55.585999C 47.367001 56.366764 48.632999 56.366764 49.414001 55.585999L 55.585999 49.414001C 56.366764 48.632999 56.366764 47.367001 55.585999 46.585999L 43 34L 55.585999 21.414C 56.366764 20.632999 56.366764 19.367001 55.585999 18.586L 49.414001 12.414C 48.632999 11.633236 47.367001 11.633236 46.585999 12.414L 34 25L 21.414 12.414C 20.632999 11.633236 19.367001 11.633236 18.586 12.414L 12.414 18.586C 11.633236 19.367001 11.633236 20.632999 12.414 21.414Z"></path></g></g></g><g id="g-root-tx_pros_hvwvkf1n5v1fr-stroke" data-item-order="0" transform="translate(122, 152)"></g><g id="g-root-ic_head_1cy0xcf1n5xtse-stroke" data-item-order="0" transform="translate(62, 242.0009765625)"><g id="ic_head_1cy0xcf1n5xtse-stroke" fill="none" stroke-linecap="round" stroke-linejoin="round" stroke-miterlimit="4" stroke="#484848" stroke-width="2"><g><path d="M 50 35.68C 49.95483 31.391716 48.17498 27.304506 45.066277 24.350294C 41.957573 21.396084 37.785019 19.826706 33.5 20C 24.791527 20.417614 17.957861 27.621622 18 36.34L 18 38.82C 18.03289 41.14603 19.933762 43.011204 22.259998 42.999996L 45.740002 43C 48.066235 43.011204 49.967106 41.14603 49.999996 38.82ZM 21.16 42.860001L 21.16 44.16C 21.160883 51.250713 26.909288 56.998402 34 56.998402C 41.090714 56.998402 46.839119 51.250713 46.84 44.16L 46.84 42.860001M 25 34C 25 35.656853 26.343145 37 28 37C 29.656855 37 31 35.656853 31 34C 31 32.343147 29.656855 31 28 31C 26.343145 31 25 32.343147 25 34M 37 34C 37 35.656853 38.343147 37 40 37C 41.656853 37 43 35.656853 43 34C 43 32.343147 41.656853 31 40 31C 38.343147 31 37 32.343147 37 34M 26 54.259998C 26.732845 50.470547 30.145512 47.800133 34 48L 34 48C 37.854485 47.800133 41.267155 50.470547 42 54.259998M 48.5 42L 50 42C 52.761425 42 55 39.761425 55 37C 55 34.238579 52.761425 32 50 32L 49.560001 32M 55 37L 57 37M 19.5 42L 18 42C 15.238577 42 13 39.761425 13 37C 13 34.238579 15.238577 32 18 32L 18.439999 32M 13 37L 11 37M 34 20L 34 18C 34 16.343145 35.343147 15 37 15C 38.656853 15 40 13.656855 40 12L 40 11"></path></g></g></g><g id="g-root-tx_emotiona_1ltnxlb1n5xszp-stroke" data-item-order="0" transform="translate(122, 254.0009765625)"></g><g id="g-root-ic_2_1czwclr1n5xssr-stroke" data-item-order="0" transform="translate(470, 242.0009765625)"><g id="ic_2_1czwclr1n5xssr-stroke" fill="none" stroke-linecap="round" stroke-linejoin="round" stroke-miterlimit="4" stroke="#484848" stroke-width="2"><g><path d="M 11 55.487999L 57 55.487999M 28.15 49.394001L 17.276001 30.966M 25.73 27.912001L 37.290001 42.077999M 11.792 23.496C 11.79163 27.731182 15.224819 31.164671 19.459999 31.164671C 23.695183 31.164671 27.12837 27.731182 27.128 23.496C 27.12837 19.260818 23.695183 15.82733 19.459999 15.82733C 15.224819 15.82733 11.79163 19.260818 11.792 23.496M 36.43 26.254L 26.610001 26.254M 26.190001 19.821999L 35.830002 19.821999M 35.099998 22.402C 35.099297 25.146248 37.323753 27.371271 40.068001 27.371271C 42.812244 27.371271 45.036701 25.146248 45.035999 22.402C 45.036701 19.657753 42.812244 17.432728 40.068001 17.432728C 37.323753 17.432728 35.099297 19.657753 35.099998 22.402M 43.444 55.487999L 26.556 55.487999L 29.934 42.577999L 40.066002 42.577999L 43.444 55.487999ZM 32.709999 49.394001C 32.709705 50.658936 33.735062 51.684528 35 51.684528C 36.264938 51.684528 37.290291 50.658936 37.290001 49.393997C 37.290291 48.129059 36.264938 47.103466 35 47.103466C 33.735062 47.103466 32.709705 48.129059 32.709999 49.393997M 17.177999 23.496C 17.178001 24.756313 18.199686 25.778 19.459999 25.778C 20.720314 25.778 21.742001 24.756313 21.742001 23.496C 21.742001 22.235687 20.720314 21.214001 19.459999 21.214001C 18.199686 21.214001 17.178001 22.235687 17.178001 23.496M 39.068001 22.402C 39.068001 22.954285 39.515717 23.402 40.068001 23.402C 40.620285 23.402 41.068001 22.954285 41.068001 22.402C 41.068001 21.849716 40.620285 21.402 40.068001 21.402C 39.515717 21.402 39.068001 21.849716 39.068001 22.402M 41.148003 17.368L 44.284 13.45C 44.757446 12.856951 45.475147 12.511719 46.234001 12.512L 52.234001 12.512C 52.896572 12.511526 53.532055 12.774931 54 13.243999L 56 15.243999C 56.975471 16.219959 56.975273 17.801844 55.999557 18.777557C 55.023842 19.753273 53.441959 19.753471 52.466 18.778L 51.200001 17.512001L 47.436001 17.512001L 45.276001 20.209999C 45.105869 20.419525 44.903309 20.600479 44.675999 20.745998M 44.650002 24.029999L 47.436001 27.511999L 51.200001 27.511999L 52.467999 26.243999C 53.443886 25.268665 55.025665 25.269112 56.000999 26.245001C 56.976334 27.220888 56.975887 28.802666 56 29.778L 54 31.778C 53.531769 32.248108 52.895508 32.512253 52.232002 32.512001L 46.231998 32.512001C 45.473347 32.511406 44.756008 32.166344 44.282001 31.573999L 40.807999 27.233999"></path></g></g></g><g id="g-root-tx_lackofad_1qaqdvz1n5xudl-stroke" data-item-order="0" transform="translate(530, 254.0009765625)"></g><g id="g-root-ic_chec_dg3dfz1n5v280-stroke" data-item-order="0" transform="translate(62, 146)"><g id="ic_chec_dg3dfz1n5v280-stroke" fill="none" stroke-linecap="round" stroke-linejoin="round" stroke-miterlimit="4" stroke="#484848" stroke-width="2"><g><path d="M 11.7 41.299999C 10.769766 42.242451 10.769766 43.757553 11.7 44.700001L 23.299999 56.299999C 23.750324 56.751892 24.362038 57.005894 25 57.005894C 25.637964 57.005894 26.249676 56.751892 26.700001 56.299999L 56.299999 26.700001C 56.751892 26.249676 57.005894 25.637964 57.005894 25C 57.005894 24.362038 56.751892 23.750324 56.299999 23.299999L 51.700001 18.700001C 51.249676 18.248108 50.637962 17.994108 50 17.994108C 49.362038 17.994108 48.750324 18.248108 48.299999 18.700001L 25 42L 19.700001 36.700001C 18.757549 35.769768 17.242451 35.769768 16.299999 36.700001Z"></path></g></g></g><g id="g-root-ic_1_qp22mn1n5h0qt-stroke" data-item-order="0" transform="translate(62, 314.0009765625)"><g id="ic_1_qp22mn1n5h0qt-stroke" fill="none" stroke-linecap="round" stroke-linejoin="round" stroke-miterlimit="4" stroke="#484848" stroke-width="2"><g><path d="M 33.900002 37C 35.556801 37 36.900002 35.656799 36.900002 34C 36.900002 32.343201 35.556801 31 33.900002 31C 32.243 31 30.9 32.343201 30.9 34C 30.9 35.656799 32.243 37 33.900002 37ZM 27.500099 44C 24.3001 41.799999 22.1001 38.200001 22.1001 34C 22.1001 27.4 27.500099 22 34.099998 22C 37.5 22 40.5 23.4 42.5 25.6L 36.099998 31.799601M 45.900002 34C 45.900002 34.799999 45.900002 35.599998 45.700001 36.400002M 42.700001 42.1992C 40.5 44.599201 37.5 45.999199 33.900002 45.999199M 51 47C 51 49.200001 49.200001 51 47 51L 21 51C 18.799999 51 17 49.200001 17 47L 17 21C 17 18.799999 18.799999 17 21 17L 47 17C 49.200001 17 51 18.799999 51 21L 51 47ZM 11.5 20.5L 17 20.5M 11.5 29.5L 17 29.5M 11.5 38.5L 17 38.5M 51 29.5L 56.5 29.5M 51 38.5L 56.5 38.5M 11.5 47.5L 17 47.5M 56.5 20.5L 51 20.5M 56.5 47.5L 51 47.5M 47.399799 56.5L 47.399799 51M 38.466599 56.5L 38.466599 51M 29.533319 56.5L 29.533319 51M 38.466599 17L 38.466599 11.5M 29.533319 17L 29.533319 11.5M 20.6001 56.5L 20.6001 51M 47.399799 11.5L 47.399799 17M 20.6001 11.5L 20.6001 17"></path></g></g></g><g id="g-root-tx_consiste_v4vkr31n5gzyk-stroke" data-item-order="0" transform="translate(122, 326.0009765625)"></g><g id="g-root-ic_1_1hbcma71n5ie4p-stroke" data-item-order="0" transform="translate(470, 314.0009765625)"><g id="ic_1_1hbcma71n5ie4p-stroke" fill="none" stroke-linecap="round" stroke-linejoin="round" stroke-miterlimit="4" stroke="#484848" stroke-width="2"><g><path d="M 57.007999 56L 11.008 56M 49 56L 49 47C 49 46.447716 49.447716 46 50 46L 54 46C 54.552284 46 55 46.447716 55 47L 55 56M 37 56L 37 37C 37 36.447716 37.447716 36 38 36L 42 36C 42.552284 36 43 36.447716 43 37L 43 56M 25 56L 25 41C 25 40.447716 25.447716 40 26 40L 30 40C 30.552284 40 31 40.447716 31 41L 31 56M 13 56L 13 27C 13 26.447716 13.447716 26 14 26L 18 26C 18.552284 26 19 26.447716 19 27L 19 56M 56 32L 44.759998 19.888C 43.692184 18.736616 42.049446 18.316544 40.559998 18.813999L 33.122002 21.296C 31.80769 21.73415 30.360241 21.461002 29.296 20.574001L 19 12M 48.007999 32L 56.007999 32L 56.007999 24"></path></g></g></g><g id="g-root-tx_inabilit_1umt4nj1n5icjs-stroke" data-item-order="0" transform="translate(530, 314.0009765625)"></g><g id="g-root-tx_tradingb_v7ddxr1n5uzuu-stroke" data-item-order="0" transform="translate(332, 38)"></g><g id="g-root-ic_uneq_18egnv31n5jqx3-stroke" data-item-order="0" transform="translate(62, 386.0009765625)"><g id="ic_uneq_18egnv31n5jqx3-stroke" fill="none" stroke-linecap="round" stroke-linejoin="round" stroke-miterlimit="4" stroke="#484848" stroke-width="2"><g><path d="M 34 23.364L 34 54.363998M 29 54.363998L 39 54.363998M 12 42.363998L 19 27.436001L 26 42.363998M 31 20.364C 31 22.020855 32.343147 23.364 34 23.364C 35.656853 23.364 37 22.020855 37 20.364C 37 18.707146 35.656853 17.364 34 17.364C 32.343147 17.364 31 18.707146 31 20.364ZM 19 49.363998C 20.870407 49.410587 22.678082 48.688061 24.001072 47.36507C 25.32406 46.042084 26.046587 44.234409 26 42.363998L 12 42.363998C 11.953412 44.234409 12.67594 46.042084 13.998928 47.36507C 15.321917 48.688061 17.129591 49.410587 19 49.363998ZM 56 30.364L 49 15.298L 42 30.364M 49 37.363998C 47.129589 37.410587 45.321915 36.688061 43.998928 35.36507C 42.675938 34.042084 41.953411 32.234406 42 30.363998L 56 30.364C 56.046585 32.234406 55.324059 34.042084 54.001072 35.36507C 52.678082 36.688061 50.870407 37.410587 49 37.363998ZM 36.987999 20.156L 53.110001 13.636M 14.892 29.094L 31.73 22.282"></path></g></g></g><g id="g-root-tx_unbiased_1lzaaj31n5idxi-stroke" data-item-order="0" transform="translate(122, 398.0009765625)"></g><g id="g-root-tx_limitede_v305hr1n5l5vt-stroke" data-item-order="0" transform="translate(530, 386.0009765625)"></g><g id="g-root-ic_1_qn6ndb1n5l6o2-stroke" data-item-order="0" transform="translate(470, 386.0009765625)"><g id="ic_1_qn6ndb1n5l6o2-stroke" fill="none" stroke-linecap="round" stroke-linejoin="round" stroke-miterlimit="4" stroke="#484848" stroke-width="2"><g><path d="M 17.68 27.18C 20.33193 29.950932 24.004557 31.512522 27.84 31.500002C 29.757292 31.49474 31.654284 31.107182 33.419998 30.360001M 16.5 31.5C 16.5 36.19442 20.30558 40 25 40C 29.69442 40 33.5 36.19442 33.5 31.5C 33.5 26.80558 29.69442 23 25 23C 20.30558 23 16.5 26.80558 16.5 31.5M 11 57C 11.000001 49.268017 17.268013 43.000004 25 43.000004C 32.731987 43.000004 39 49.268017 39 57.000004ZM 41 34C 41.332615 34.03093 41.667381 34.03093 42 34C 44.052883 33.864658 45.91452 32.747677 47 31C 61 31 59.759998 11 46.799999 11C 44.204826 10.963085 41.722267 12.058331 40 14C 37.660019 12.849548 34.937244 12.765522 32.530777 13.769494C 30.124308 14.773466 28.268555 16.767643 27.440001 19.24M 42 40C 42 41.104568 42.895432 42 44 42C 45.104568 42 46 41.104568 46 40C 46 38.895432 45.104568 38 44 38C 42.895432 38 42 38.895432 42 40M 43 21.5C 43.276142 21.5 43.5 21.723858 43.5 22L 43.5 22C 43.5 22.276142 43.276142 22.5 43 22.5L 43 22.5C 42.723858 22.5 42.5 22.276142 42.5 22L 42.5 22C 42.5 21.723858 42.723858 21.5 43 21.5M 43 21.5L 43 21.5M 49 21.5C 49.276142 21.5 49.5 21.723858 49.5 22L 49.5 22C 49.5 22.276142 49.276142 22.5 49 22.5L 49 22.5C 48.723858 22.5 48.5 22.276142 48.5 22L 48.5 22C 48.5 21.723858 48.723858 21.5 49 21.5M 49 21.5L 49 21.5M 37 21.5C 37.276142 21.5 37.5 21.723858 37.5 22L 37.5 22C 37.5 22.276142 37.276142 22.5 37 22.5L 37 22.5C 36.723858 22.5 36.5 22.276142 36.5 22L 36.5 22C 36.5 21.723858 36.723858 21.5 37 21.5M 37 21.5L 37 21.5M 37 42.5C 37.276142 42.5 37.5 42.723858 37.5 43L 37.5 43C 37.5 43.276142 37.276142 43.5 37 43.5L 37 43.5C 36.723858 43.5 36.5 43.276142 36.5 43L 36.5 43C 36.5 42.723858 36.723858 42.5 37 42.5M 37 42.5L 37 42.5"></path></g></g></g></g></g></svg>