<?xml version="1.0" encoding="utf-8" standalone="yes"?>
<!DOCTYPE svg PUBLIC "-//W3C//DTD SVG 1.1//EN" "http://www.w3.org/Graphics/SVG/1.1/DTD/svg11.dtd">
<svg width="624" height="600" viewBox="0 0 624 600" style="fill:none;stroke:none;fill-rule:evenodd;clip-rule:evenodd;stroke-linecap:round;stroke-linejoin:round;stroke-miterlimit:1.5;" version="1.1" xmlns="http://www.w3.org/2000/svg" xmlns:xlink="http://www.w3.org/1999/xlink"><style class="text-font-style fontImports" data-font-family="Roboto">@import url(https://fonts.googleapis.com/css2?family=Roboto:wght@400;700&amp;amp;display=block);</style><rect id="" x="0" y="0" width="624" height="600" style="fill: #ffffff;"></rect><g id="items" style="isolation: isolate"><g id="blend" style="mix-blend-mode: normal"><g id="g-root-tf_4g31lb1ojvswe-fill" data-item-order="-561600"><g id="tf_4g31lb1ojvswe-fill" stroke="none" fill="#ffffff"><g><path d="M0 0h624 v600 h -624 Z"></path></g></g></g><g id="g-root-cp_5_g-5_18gyh1r1ok026j-fill" data-item-order="-290293" transform="translate(218, 369)"></g><g id="g-root-cp_4_g-4_18gyh1r1ok026l-fill" data-item-order="-290290" transform="translate(290, 380)"><g id="cp_4_g-4_18gyh1r1ok026l-fill" stroke="none" fill="url(#gradient-cbcbcb-248399021)"><g><path d="M 22.043 10C 28.6943 10 34.0869 15.3726 34.0869 22C 34.0869 28.6274 28.6943 34 22.043 34C 15.3918 33.9999 10 28.6273 10 22C 10 15.3727 15.3918 10.0001 22.043 10ZM 22 16C 18.6863 16 16 18.6863 16 22C 16 25.3137 18.6863 28 22 28C 25.3137 28 28 25.3137 28 22C 28 18.6863 25.3137 16 22 16Z"></path></g></g></g><g id="g-root-cp_3_g-3_141rg0f1ojzzt3-fill" data-item-order="-290286" transform="translate(254, 401.325927734375)"><g id="cp_3_g-3_141rg0f1ojzzt3-fill" stroke="none" fill="url(#gradient-cbcbcb-248399021)"><g><path d="M 22 78.6744L 94 78.6744C 94 78.6744 73.9918 28.1666 65.9587 10.0582C 63.7253 11.9521 61.0733 12.9969 58.0432 12.9969C 54.9864 12.9969 52.2877 11.9334 50.072 10C 42.047 28.1148 22 78.6744 22 78.6744Z"></path></g></g><g id="cp_3_g-3_141rg0f1ojzzt3-fill" stroke="none" fill="url(#gradient-cbcbcb-248399021)"><g><path d="M 18.000024 78.678955C 13.581824 78.678955 10.000124 82.260655 10.000024 86.678855L 10.000024 88.678955C 10.000024 89.783555 10.895424 90.678955 12.000024 90.678955L 104.000024 90.678955C 105.104524 90.678955 106.000024 89.783555 106.000024 88.678955L 106.000024 86.678955C 106.000024 82.260655 102.418224 78.678955 98.000024 78.678955L 18.000024 78.678955Z"></path></g></g></g><g id="g-root-cp_right-lines_g-right-lines_141rg0f1ojzzt6-fill" data-item-order="-290282" transform="translate(350, 350)"><g id="cp_right-lines_g-right-lines_141rg0f1ojzzt6-fill" stroke="none" fill="url(#gradient-64edab-240055791)"><g><path d="M 10 11.8C 10 10.8059 10.8059 10 11.8 10L 80.2 10C 81.1941 10 82 10.8059 82 11.8C 82 20.747 74.747 28 65.8 28L 26.2 28C 17.253 28 10 20.747 10 11.8Z"></path></g></g></g><g id="g-root-cp_left-lines_g-left-lines_zlxxvz1ok00lg-fill" data-item-order="-290278" transform="translate(182, 350)"><defs><linearGradient id="gradient-cbcbcb-248399021" x2="0" y2="1"><stop offset="0" stop-color="#d9d9d9"></stop><stop offset="1" stop-color="#bcbcbc"></stop></linearGradient><linearGradient id="gradient-64edab-240055791" x2="0" y2="1"><stop offset="0" stop-color="#83fac1"></stop><stop offset="1" stop-color="#44e095"></stop></linearGradient><linearGradient id="gradient-4dd3ff-378786070" x2="0" y2="1"><stop offset="0" stop-color="#7fdfff"></stop><stop offset="1" stop-color="#1ac6ff"></stop></linearGradient></defs><g id="cp_left-lines_g-left-lines_zlxxvz1ok00lg-fill" stroke="none" fill="url(#gradient-4dd3ff-378786070)"><g><path d="M 10 11.8C 10 10.8059 10.8059 10 11.8 10L 80.2 10C 81.1941 10 82 10.8059 82 11.8C 82 20.747 74.747 28 65.8 28L 26.2 28C 17.253 28 10 20.747 10 11.8Z"></path></g></g></g><g id="g-root-tx_balancin_zlxxvz1ok00li-fill" data-item-order="0" transform="translate(74, 38)"><g id="tx_balancin_zlxxvz1ok00li-fill" stroke="none" fill="#484848"><g><text style="font: bold 25px Roboto, sans-serif; white-space: pre;" font-weight="bold" font-size="25px" font-family="Roboto, sans-serif"><tspan x="15.56" y="40" dominant-baseline="ideographic">Balancing Consistency and Adaptability</tspan><tspan x="182.02" y="70" dominant-baseline="ideographic">in Trading</tspan></text></g></g></g><g id="g-root-tx_consiste_mahfin1ok026f-fill" data-item-order="0" transform="translate(86, 213)"><g id="tx_consiste_mahfin1ok026f-fill" stroke="none" fill="#484848"><g><text style="font: 15px Roboto, sans-serif; white-space: pre;" font-size="15px" font-family="Roboto, sans-serif"><tspan x="32.2" y="28" dominant-baseline="ideographic">Consistent </tspan><tspan x="17.22" y="46" dominant-baseline="ideographic">Performance</tspan></text></g></g></g><g id="g-root-ic_bird_hvaehb1ojzzsw-fill" data-item-order="0" transform="translate(194, 207)"></g><g id="g-root-ic_cham_1hduimn1ojkjyf-fill" data-item-order="0" transform="translate(362, 225)"></g><g id="g-root-tx_adaptabi_1uoojwv1ojklj7-fill" data-item-order="0" transform="translate(422, 237)"><g id="tx_adaptabi_1uoojwv1ojklj7-fill" stroke="none" fill="#484848"><g><text style="font: 15px Roboto, sans-serif; white-space: pre;" font-size="15px" font-family="Roboto, sans-serif"><tspan x="12" y="31" dominant-baseline="ideographic">Adaptability to Change</tspan></text></g></g></g><g id="g-root-tx_specific_3e0271ojj6rp-fill" data-item-order="0" transform="translate(50, 285)"><g id="tx_specific_3e0271ojj6rp-fill" stroke="none" fill="#484848"><g><text style="font: 15px Roboto, sans-serif; white-space: pre;" font-size="15px" font-family="Roboto, sans-serif"><tspan x="19.22" y="28" dominant-baseline="ideographic">Specific Condition </tspan><tspan x="99.44" y="46" dominant-baseline="ideographic">Focus</tspan></text></g></g></g><g id="g-root-ic_1_1lto0r31ojj4zt-fill" data-item-order="0" transform="translate(194, 279)"></g><g id="g-root-ic_ulul_deuifj1ojlybq-fill" data-item-order="0" transform="translate(362, 285)"></g><g id="g-root-tx_longterm_v5i1u71ojlz4a-fill" data-item-order="0" transform="translate(422, 297)"><g id="tx_longterm_v5i1u71ojlz4a-fill" stroke="none" fill="#484848"><g><text style="font: 15px Roboto, sans-serif; white-space: pre;" font-size="15px" font-family="Roboto, sans-serif"><tspan x="12" y="31" dominant-baseline="ideographic">Long-term Experience</tspan></text></g></g></g><g id="g-root-tx_tradingb_1unflqn1ojoqo6-fill" data-item-order="0" transform="translate(86, 422)"><g id="tx_tradingb_1unflqn1ojoqo6-fill" stroke="none" fill="#484848"><g><text style="font: 15px Roboto, sans-serif; white-space: pre;" font-size="15px" font-family="Roboto, sans-serif"><tspan x="15.78" y="31" dominant-baseline="ideographic">Trading Bots</tspan></text></g></g></g><g id="g-root-tx_humantra_1cw5l8v1ojot1e-fill" data-item-order="0" transform="translate(416, 422)"><g id="tx_humantra_1cw5l8v1ojot1e-fill" stroke="none" fill="#484848"><g><text style="font: 15px Roboto, sans-serif; white-space: pre;" font-size="15px" font-family="Roboto, sans-serif"><tspan x="12.7" y="31" dominant-baseline="ideographic">Human Traders</tspan></text></g></g></g><g id="g-root-tf_4g31lb1ojvswe-stroke" data-item-order="-561600"></g><g id="g-root-cp_5_g-5_18gyh1r1ok026j-stroke" data-item-order="-290293" transform="translate(218, 369)"><g id="cp_5_g-5_18gyh1r1ok026j-stroke" fill="none" stroke-linecap="round" stroke-linejoin="round" stroke-miterlimit="4" stroke="#484848" stroke-width="2"><g><path d="M 178 10L 178 24.9777C 178 29.3949 174.42 32.9762 170.0028 32.9777L 107 33M 10 10L 10 25.0254C 10 29.4437 13.5817 33.0254 18 33.0254L 82 33.0255"></path></g></g></g><g id="g-root-cp_4_g-4_18gyh1r1ok026l-stroke" data-item-order="-290290" transform="translate(290, 380)"><g id="cp_4_g-4_18gyh1r1ok026l-stroke" fill="none" stroke-linecap="round" stroke-linejoin="round" stroke-miterlimit="4" stroke="#484848" stroke-width="2"><g><path d="M 22.043 10C 28.6943 10 34.0869 15.3726 34.0869 22C 34.0869 28.6274 28.6943 34 22.043 34C 15.3918 33.9999 10 28.6273 10 22C 10 15.3727 15.3918 10.0001 22.043 10ZM 22 16C 18.6863 16 16 18.6863 16 22C 16 25.3137 18.6863 28 22 28C 25.3137 28 28 25.3137 28 22C 28 18.6863 25.3137 16 22 16Z"></path></g></g></g><g id="g-root-cp_3_g-3_141rg0f1ojzzt3-stroke" data-item-order="-290286" transform="translate(254, 401.325927734375)"><g id="cp_3_g-3_141rg0f1ojzzt3-stroke" fill="none" stroke-linecap="round" stroke-linejoin="round" stroke-miterlimit="4" stroke="#484848" stroke-width="2"><g><path d="M 22 78.6744L 94 78.6744C 94 78.6744 73.9918 28.1666 65.9587 10.0582C 63.7253 11.9521 61.0733 12.9969 58.0432 12.9969C 54.9864 12.9969 52.2877 11.9334 50.072 10C 42.047 28.1148 22 78.6744 22 78.6744Z"></path></g></g><g id="cp_3_g-3_141rg0f1ojzzt3-stroke" fill="none" stroke-linecap="round" stroke-linejoin="round" stroke-miterlimit="4" stroke="#484848" stroke-width="2"><g><path d="M 18.000024 78.678955C 13.581824 78.678955 10.000124 82.260655 10.000024 86.678855L 10.000024 88.678955C 10.000024 89.783555 10.895424 90.678955 12.000024 90.678955L 104.000024 90.678955C 105.104524 90.678955 106.000024 89.783555 106.000024 88.678955L 106.000024 86.678955C 106.000024 82.260655 102.418224 78.678955 98.000024 78.678955L 18.000024 78.678955ZM 58 70.678955C 59.4571 70.678955 60.8233 71.068555 62 71.749255L 62 62.678955L 58 58.678955L 54 62.678955L 54 71.749255C 55.1767 71.068555 56.5428 70.678955 58 70.678955ZM 66 78.678955C 66 75.717855 64.3912 73.132455 62 71.749255C 60.8233 71.068555 59.4571 70.678955 58 70.678955C 56.5428 70.678955 55.1767 71.068555 54 71.749255C 51.6088 73.132455 50 75.717855 50 78.678955L 66 78.678955ZM 58.00007 49.678955L 58.00007 55.478955M 78.50307 58.175955L 74.40437 62.274655M 37.49707 58.175955L 41.59577 62.274655M 64.74737 53.468255L 64.00307 56.261955M 44.94037 56.078255L 46.40007 58.591655M 71.03077 56.068655L 69.59037 58.572255M 51.22377 53.477955L 51.97777 56.271655"></path></g></g></g><g id="g-root-cp_right-lines_g-right-lines_141rg0f1ojzzt6-stroke" data-item-order="-290282" transform="translate(350, 350)"><g id="cp_right-lines_g-right-lines_141rg0f1ojzzt6-stroke" fill="none" stroke-linecap="round" stroke-linejoin="round" stroke-miterlimit="4" stroke="#484848" stroke-width="2"><g><path d="M 10 11.8C 10 10.8059 10.8059 10 11.8 10L 80.2 10C 81.1941 10 82 10.8059 82 11.8C 82 20.747 74.747 28 65.8 28L 26.2 28C 17.253 28 10 20.747 10 11.8Z"></path></g></g></g><g id="g-root-cp_left-lines_g-left-lines_zlxxvz1ok00lg-stroke" data-item-order="-290278" transform="translate(182, 350)"><g id="cp_left-lines_g-left-lines_zlxxvz1ok00lg-stroke" fill="none" stroke-linecap="round" stroke-linejoin="round" stroke-miterlimit="4" stroke="#484848" stroke-width="2"><g><path d="M 10 11.8C 10 10.8059 10.8059 10 11.8 10L 80.2 10C 81.1941 10 82 10.8059 82 11.8C 82 20.747 74.747 28 65.8 28L 26.2 28C 17.253 28 10 20.747 10 11.8Z"></path></g></g></g><g id="g-root-tx_balancin_zlxxvz1ok00li-stroke" data-item-order="0" transform="translate(74, 38)"></g><g id="g-root-tx_consiste_mahfin1ok026f-stroke" data-item-order="0" transform="translate(86, 213)"></g><g id="g-root-ic_bird_hvaehb1ojzzsw-stroke" data-item-order="0" transform="translate(194, 207)"><g id="ic_bird_hvaehb1ojzzsw-stroke" fill="none" stroke-linecap="round" stroke-linejoin="round" stroke-miterlimit="4" stroke="#484848" stroke-width="2"><g><path d="M 57 56.778C 52 57.818001 48.880001 52.818001 48.880001 52.818001L 48.880001 52.818001C 47.308853 55.317238 44.589237 56.862183 41.638 56.932003C 38.708015 56.790997 36.020248 55.263298 34.400002 52.818001L 34.400002 52.818001C 32.827568 55.315895 30.108742 56.860394 27.158001 56.931999C 24.230885 56.788498 21.546604 55.261093 19.927999 52.818001L 19.928001 52.818001C 19.928001 52.818001 15.906 57.902 11 56.860001M 57 46.924C 52 47.962002 48.880001 42.962002 48.880001 42.962002L 48.880001 42.962002C 47.308853 45.461235 44.589237 47.00618 41.638 47.076C 38.708015 46.934994 36.020248 45.407299 34.400002 42.961998L 34.400002 42.962002C 32.827568 45.459892 30.108742 47.004391 27.158001 47.076C 24.230885 46.932499 21.546604 45.405094 19.927999 42.961998L 19.928001 42.962002C 19.928001 42.962002 15.906 48.046001 11 47M 17 21.001999C 17 23.21114 18.790861 25.001999 21 25.001999C 23.209139 25.001999 25 23.21114 25 21.001999C 25 18.792862 23.209139 17.001999 21 17.001999C 18.790861 17.001999 17 18.792862 17 21.001999ZM 11 21.001999L 13 21.001999M 29 21.001999L 31 21.001999M 21 11.002L 21 13.002M 21 29.002001L 21 31.002001M 13.927999 13.93L 15.344 15.344M 26.656 26.658001L 28.072001 28.072001M 28.072001 13.93L 26.656 15.344M 15.344 26.658001L 13.927999 28.072001M 42 15L 44.251999 17.540001C 44.441784 17.753889 44.71405 17.876301 45 17.876301C 45.28595 17.876301 45.558216 17.753889 45.748001 17.540001L 48 15M 50 23L 52.251999 25.540001C 52.441784 25.753889 52.71405 25.876301 53 25.876301C 53.28595 25.876301 53.558216 25.753889 53.748001 25.540001L 56 23M 37 30L 39.251999 32.540001C 39.441784 32.753891 39.71405 32.876301 40 32.876301C 40.28595 32.876301 40.558216 32.753891 40.748001 32.540001L 43 30"></path></g></g></g><g id="g-root-ic_cham_1hduimn1ojkjyf-stroke" data-item-order="0" transform="translate(362, 225)"><g id="ic_cham_1hduimn1ojkjyf-stroke" fill="none" stroke-linecap="round" stroke-linejoin="round" stroke-miterlimit="4" stroke="#484848" stroke-width="2"><g><path d="M 22.5 22C 24.985283 22 27 24.014719 27 26.5M 18 26.5C 18 24.014719 20.014719 22 22.5 22M 22.5 31C 20.014719 31 18 28.985281 18 26.5M 27 26.5C 27 28.985281 24.985283 31 22.5 31M 22.5 26C 22.776142 26 23 26.223858 23 26.5M 22 26.5C 22 26.223858 22.223858 26 22.5 26M 22.5 27C 22.223858 27 22 26.776142 22 26.5M 23 26.5C 23 26.776142 22.776142 27 22.5 27M 29.676001 20.98C 33.495564 19.108717 37.786503 18.419327 42 19C 52.953999 20 56 28 56 36C 56 44 53 50 47 50C 41 50 39.234001 46.068001 40 43C 40.391998 41.305473 41.700592 39.973579 43.387936 39.551743C 45.075283 39.129906 46.856697 39.689301 48 41C 50 43 48 46 46 45M 24.968 19.296C 24.691206 18.831562 24.366789 18.397219 24 18C 21.428722 18.313488 19.000303 19.35424 17 21C 13.902867 23.831295 12.096698 27.804869 12 31.999998C 13.62839 33.614971 15.730989 34.666267 18 35C 24 36 27 34 27 34L 23 41L 28 41C 31 41 32.388 37.223999 34 34C 36 30 33 29 33 29M 48 29C 48 29 51 30 49 34C 48.073265 35.97538 46.97224 37.864193 45.710003 39.644001M 36 41L 12 41M 33.512001 35L 42 35L 41 37"></path></g></g></g><g id="g-root-tx_adaptabi_1uoojwv1ojklj7-stroke" data-item-order="0" transform="translate(422, 237)"></g><g id="g-root-tx_specific_3e0271ojj6rp-stroke" data-item-order="0" transform="translate(50, 285)"></g><g id="g-root-ic_1_1lto0r31ojj4zt-stroke" data-item-order="0" transform="translate(194, 279)"><g id="ic_1_1lto0r31ojj4zt-stroke" fill="none" stroke-linecap="round" stroke-linejoin="round" stroke-miterlimit="4" stroke="#484848" stroke-width="2"><g><path d="M 11 31C 11 42.045696 19.954306 51 31 51C 42.045696 51 51 42.045696 51 31C 51 19.954306 42.045696 11 31 11C 19.954306 11 11 19.954306 11 31ZM 57 57L 45.141998 45.141998"></path></g></g></g><g id="g-root-ic_ulul_deuifj1ojlybq-stroke" data-item-order="0" transform="translate(362, 285)"><g id="ic_ulul_deuifj1ojlybq-stroke" fill="none" stroke-linecap="round" stroke-linejoin="round" stroke-miterlimit="4" stroke="#484848" stroke-width="2"><g><path d="M 53 36C 53.000515 31.338427 49.780087 27.294838 45.236607 26.252228C 40.693123 25.209618 36.031933 27.444584 34 31.639999C 31.967743 27.445225 27.306923 25.210804 22.76387 26.253344C 18.220818 27.295883 15.000534 31.338861 15.000534 36C 15.000534 40.66114 18.220818 44.704117 22.76387 45.746658C 27.306923 46.7892 31.967743 44.554775 34 40.360001C 36.031933 44.555416 40.693123 46.790382 45.236607 45.747772C 49.780087 44.705162 53.000515 40.661575 53 36ZM 19 35C 19 37.761425 21.238577 40 24 40C 26.761423 40 29 37.761425 29 35C 29 32.238579 26.761423 30 24 30C 21.238577 30 19 32.238579 19 35M 22 32C 22 33.104568 22.895432 34 24 34C 25.104568 34 26 33.104568 26 32C 26 30.89543 25.104568 30 24 30C 22.895432 30 22 30.89543 22 32M 39 35C 39 37.761425 41.238579 40 44 40C 46.761425 40 49 37.761425 49 35C 49 32.238579 46.761425 30 44 30C 41.238579 30 39 32.238579 39 35M 42 32C 42 33.104568 42.895432 34 44 34C 45.104568 34 46 33.104568 46 32C 46 30.89543 45.104568 30 44 30C 42.895432 30 42 30.89543 42 32M 34 36L 33 34L 34 31.639999L 35 34L 34 36ZM 56.459999 18.18C 56.141708 18.02449 55.760624 18.080067 55.5 18.32L 52.759998 20.700001C 48.447117 14.619528 41.454735 11.006479 34 11.006479C 26.545265 11.006479 19.552883 14.619528 15.24 20.700001L 12.5 18.32C 12.239376 18.080067 11.858293 18.02449 11.54 18.18C 11.206327 18.313629 10.990954 18.640678 11 19L 11 34C 11 46.702549 21.297451 57 34 57C 46.702549 57 57 46.702549 57 34L 57 19C 57.009045 18.640678 56.793671 18.313629 56.459999 18.18Z"></path></g></g></g><g id="g-root-tx_longterm_v5i1u71ojlz4a-stroke" data-item-order="0" transform="translate(422, 297)"></g><g id="g-root-tx_tradingb_1unflqn1ojoqo6-stroke" data-item-order="0" transform="translate(86, 422)"></g><g id="g-root-tx_humantra_1cw5l8v1ojot1e-stroke" data-item-order="0" transform="translate(416, 422)"></g></g></g></svg>